<svg xmlns="http://www.w3.org/2000/svg" xmlns:xlink="http://www.w3.org/1999/xlink" width="1320" height="320" preserveAspectRatio="xMidYMid meet" version="1.0" viewBox="0 0 990 240" zoomAndPan="magnify"><defs><clipPath id="0ed4dada3d"><path d="M 345.679688 0 L 644.179688 0 L 644.179688 112.5 L 345.679688 112.5 Z M 345.679688 0" clip-rule="nonzero"/></clipPath><clipPath id="2c27801e7e"><path d="M 155 43 L 163.5 43 L 163.5 52 L 155 52 Z M 155 43" clip-rule="nonzero"/></clipPath><clipPath id="c1a5d303fa"><path d="M 0 0 L 157 0 L 157 112.5 L 0 112.5 Z M 0 0" clip-rule="nonzero"/></clipPath><clipPath id="0aa5f42b19"><path d="M 826.496094 43 L 835 43 L 835 52 L 826.496094 52 Z M 826.496094 43" clip-rule="nonzero"/></clipPath><clipPath id="ffc315f41e"><path d="M 833 0 L 989.84375 0 L 989.84375 112.5 L 833 112.5 Z M 833 0" clip-rule="nonzero"/></clipPath></defs><rect width="1188" height="288" x="-99" y="-24" fill="#fff" fill-opacity="1"/><rect width="1188" height="288" x="-99" y="-24" fill="#fff" fill-opacity="1"/><rect width="1188" height="288" x="-99" y="-24" fill="#050a30" fill-opacity="1"/><g clip-path="url(#0ed4dada3d)"><path fill="#233dff" fill-opacity="1" fill-rule="nonzero" d="M 415.867188 5.085938 L 417.695312 8.257812 L 398.371094 8.257812 L 396.539062 5.085938 L 393.015625 5.085938 L 393.015625 5.585938 L 391.277344 5.585938 L 391.277344 3.777344 L 393.015625 3.777344 L 393.015625 4.28125 L 416.328125 4.28125 L 433.25 33.636719 L 441.136719 33.636719 L 422.625 1.515625 L 401.027344 1.515625 L 401.027344 2.019531 L 399.292969 2.019531 L 399.292969 0.210938 L 401.027344 0.210938 L 401.027344 0.710938 L 423.089844 0.710938 L 442.058594 33.628906 L 458.257812 33.628906 L 458.257812 34.433594 L 432.785156 34.433594 Z M 394.554688 29.851562 L 392.824219 29.851562 L 393.429688 30.894531 L 392.824219 31.9375 L 394.554688 31.9375 L 395.160156 30.894531 Z M 398.042969 29.851562 L 396.3125 29.851562 L 396.914062 30.894531 L 396.3125 31.9375 L 398.042969 31.9375 L 398.644531 30.894531 Z M 396.011719 29.5 L 398.242188 29.5 L 399.046875 30.894531 L 398.242188 32.289062 L 395.703125 32.289062 L 396.507812 30.894531 L 395.703125 29.5 Z M 401.53125 29.851562 L 399.800781 29.851562 L 400.402344 30.894531 L 399.800781 31.9375 L 401.53125 31.9375 L 402.132812 30.894531 Z M 399.5 29.5 L 401.730469 29.5 L 402.535156 30.894531 L 401.730469 32.289062 L 399.191406 32.289062 L 399.992188 30.894531 L 399.191406 29.5 Z M 392.523438 29.5 L 394.757812 29.5 L 395.558594 30.894531 L 394.757812 32.289062 L 392.21875 32.289062 L 393.019531 30.894531 L 392.21875 29.5 Z M 383.964844 29.851562 L 382.234375 29.851562 L 382.835938 30.894531 L 382.234375 31.9375 L 383.964844 31.9375 L 384.566406 30.894531 Z M 387.445312 29.851562 L 385.714844 29.851562 L 386.316406 30.894531 L 385.714844 31.9375 L 387.445312 31.9375 L 388.046875 30.894531 Z M 385.414062 29.5 L 387.644531 29.5 L 388.449219 30.894531 L 387.644531 32.289062 L 385.105469 32.289062 L 385.910156 30.894531 L 385.105469 29.5 Z M 390.933594 29.851562 L 389.199219 29.851562 L 389.804688 30.894531 L 389.199219 31.9375 L 390.933594 31.9375 L 391.535156 30.894531 Z M 388.898438 29.5 L 391.132812 29.5 L 391.933594 30.894531 L 391.132812 32.289062 L 388.59375 32.289062 L 389.394531 30.894531 L 388.59375 29.5 Z M 381.925781 29.5 L 384.160156 29.5 L 384.960938 30.894531 L 384.160156 32.289062 L 381.621094 32.289062 L 382.421875 30.894531 L 381.621094 29.5 Z M 573.996094 5.085938 L 572.164062 8.257812 L 591.492188 8.257812 L 593.324219 5.085938 L 596.847656 5.085938 L 596.847656 5.585938 L 598.582031 5.585938 L 598.582031 3.777344 L 596.847656 3.777344 L 596.847656 4.28125 L 573.53125 4.28125 L 556.613281 33.636719 L 548.722656 33.636719 L 567.234375 1.515625 L 588.832031 1.515625 L 588.832031 2.019531 L 590.570312 2.019531 L 590.570312 0.210938 L 588.832031 0.210938 L 588.832031 0.710938 L 566.769531 0.710938 L 547.792969 33.628906 L 531.597656 33.628906 L 531.597656 34.433594 L 557.070312 34.433594 Z M 595.304688 29.851562 L 597.035156 29.851562 L 596.433594 30.894531 L 597.035156 31.9375 L 595.304688 31.9375 L 594.703125 30.894531 Z M 591.816406 29.851562 L 593.546875 29.851562 L 592.945312 30.894531 L 593.546875 31.9375 L 591.816406 31.9375 L 591.214844 30.894531 Z M 593.847656 29.5 L 591.617188 29.5 L 590.8125 30.894531 L 591.617188 32.289062 L 594.15625 32.289062 L 593.355469 30.894531 L 594.15625 29.5 Z M 588.332031 29.851562 L 590.0625 29.851562 L 589.460938 30.894531 L 590.0625 31.9375 L 588.332031 31.9375 L 587.730469 30.894531 Z M 590.363281 29.5 L 588.128906 29.5 L 587.328125 30.894531 L 588.128906 32.289062 L 590.667969 32.289062 L 589.867188 30.894531 L 590.667969 29.5 Z M 597.335938 29.5 L 595.101562 29.5 L 594.300781 30.894531 L 595.101562 32.289062 L 597.644531 32.289062 L 596.839844 30.894531 L 597.644531 29.5 Z M 605.894531 29.851562 L 607.625 29.851562 L 607.023438 30.894531 L 607.625 31.9375 L 605.894531 31.9375 L 605.292969 30.894531 Z M 602.414062 29.851562 L 604.144531 29.851562 L 603.542969 30.894531 L 604.144531 31.9375 L 602.414062 31.9375 L 601.8125 30.894531 Z M 604.445312 29.5 L 602.214844 29.5 L 601.410156 30.894531 L 602.214844 32.289062 L 604.753906 32.289062 L 603.953125 30.894531 L 604.753906 29.5 Z M 598.929688 29.851562 L 600.660156 29.851562 L 600.058594 30.894531 L 600.660156 31.9375 L 598.929688 31.9375 L 598.328125 30.894531 Z M 600.960938 29.5 L 598.726562 29.5 L 597.925781 30.894531 L 598.726562 32.289062 L 601.269531 32.289062 L 600.464844 30.894531 L 601.269531 29.5 Z M 607.933594 29.5 L 605.703125 29.5 L 604.898438 30.894531 L 605.703125 32.289062 L 608.242188 32.289062 L 607.4375 30.894531 L 608.242188 29.5 Z M 562.21875 45.996094 L 531.609375 45.996094 L 531.609375 45.195312 L 561.984375 45.195312 L 579.757812 14.355469 L 615.515625 14.355469 L 615.515625 13.855469 L 617.253906 13.855469 L 617.253906 15.664062 L 615.515625 15.664062 L 615.515625 15.160156 L 580.222656 15.160156 L 579.625 16.191406 L 615.515625 16.191406 L 615.515625 15.6875 L 617.253906 15.6875 L 617.253906 17.496094 L 615.515625 17.496094 L 615.515625 16.996094 L 579.164062 16.996094 L 562.445312 45.996094 Z M 415.867188 107.480469 L 417.695312 104.304688 L 398.371094 104.304688 L 396.539062 107.480469 L 393.015625 107.480469 L 393.015625 106.976562 L 391.277344 106.976562 L 391.277344 108.785156 L 393.015625 108.785156 L 393.015625 108.28125 L 416.328125 108.28125 L 433.25 78.925781 L 441.136719 78.925781 L 422.625 111.046875 L 401.027344 111.046875 L 401.027344 110.542969 L 399.292969 110.542969 L 399.292969 112.355469 L 401.027344 112.355469 L 401.027344 111.851562 L 423.089844 111.851562 L 442.058594 78.933594 L 458.257812 78.933594 L 458.257812 78.128906 L 432.785156 78.128906 Z M 407.832031 89.417969 L 408.667969 87.972656 L 399.867188 87.972656 L 399.035156 89.417969 L 383.476562 89.417969 L 383.476562 88.914062 L 381.738281 88.914062 L 381.738281 90.726562 L 383.476562 90.726562 L 383.476562 90.222656 L 408.289062 90.222656 L 427.390625 57.085938 L 425.558594 60.257812 L 444.886719 60.257812 L 446.71875 57.085938 L 458.0625 57.085938 L 458.0625 55.476562 L 446.71875 55.476562 L 444.886719 52.304688 L 425.558594 52.304688 L 427.390625 55.476562 L 408.289062 22.339844 L 383.476562 22.339844 L 383.476562 21.835938 L 381.738281 21.835938 L 381.738281 23.648438 L 383.476562 23.648438 L 383.476562 23.144531 L 399.035156 23.144531 L 399.867188 24.589844 L 408.667969 24.589844 L 407.832031 23.144531 L 426.46875 55.476562 L 416.5 55.476562 L 404.125 34.011719 L 347.417969 34.011719 L 347.417969 33.507812 L 345.679688 33.507812 L 345.679688 35.320312 L 347.417969 35.320312 L 347.417969 34.816406 L 403.660156 34.816406 L 413.558594 51.984375 L 400.148438 51.984375 L 392.757812 39.152344 L 361.527344 39.152344 L 361.527344 38.648438 L 359.789062 38.648438 L 359.789062 40.457031 L 361.527344 40.457031 L 361.527344 39.953125 L 392.300781 39.953125 L 399.691406 52.789062 L 414.027344 52.789062 L 416.042969 56.28125 L 414.027344 59.773438 L 399.6875 59.773438 L 392.292969 72.609375 L 361.519531 72.609375 L 361.519531 72.105469 L 359.785156 72.105469 L 359.785156 73.914062 L 361.519531 73.914062 L 361.519531 73.414062 L 392.75 73.414062 L 400.144531 60.578125 L 413.550781 60.578125 L 403.65625 77.746094 L 347.417969 77.746094 L 347.417969 77.242188 L 345.679688 77.242188 L 345.679688 79.054688 L 347.417969 79.054688 L 347.417969 78.550781 L 404.125 78.550781 L 416.5 57.085938 L 426.46875 57.085938 Z M 394.554688 82.710938 L 392.824219 82.710938 L 393.429688 81.667969 L 392.824219 80.625 L 394.554688 80.625 L 395.160156 81.667969 Z M 398.042969 82.710938 L 396.3125 82.710938 L 396.914062 81.667969 L 396.3125 80.625 L 398.042969 80.625 L 398.644531 81.667969 Z M 396.011719 83.0625 L 398.242188 83.0625 L 399.046875 81.667969 L 398.242188 80.273438 L 395.703125 80.273438 L 396.507812 81.667969 L 395.703125 83.0625 Z M 401.53125 82.710938 L 399.800781 82.710938 L 400.402344 81.667969 L 399.800781 80.625 L 401.53125 80.625 L 402.132812 81.667969 Z M 399.5 83.0625 L 401.730469 83.0625 L 402.535156 81.667969 L 401.730469 80.273438 L 399.191406 80.273438 L 399.992188 81.667969 L 399.191406 83.0625 Z M 392.523438 83.0625 L 394.757812 83.0625 L 395.558594 81.667969 L 394.757812 80.273438 L 392.21875 80.273438 L 393.019531 81.667969 L 392.21875 83.0625 Z M 383.964844 82.710938 L 382.234375 82.710938 L 382.835938 81.667969 L 382.234375 80.625 L 383.964844 80.625 L 384.566406 81.667969 Z M 387.445312 82.710938 L 385.714844 82.710938 L 386.316406 81.667969 L 385.714844 80.625 L 387.445312 80.625 L 388.046875 81.667969 Z M 385.414062 83.0625 L 387.644531 83.0625 L 388.449219 81.667969 L 387.644531 80.273438 L 385.105469 80.273438 L 385.910156 81.667969 L 385.105469 83.0625 Z M 390.933594 82.710938 L 389.199219 82.710938 L 389.804688 81.667969 L 389.199219 80.625 L 390.933594 80.625 L 391.535156 81.667969 Z M 388.898438 83.0625 L 391.132812 83.0625 L 391.933594 81.667969 L 391.132812 80.273438 L 388.59375 80.273438 L 389.394531 81.667969 L 388.59375 83.0625 Z M 381.925781 83.0625 L 384.160156 83.0625 L 384.960938 81.667969 L 384.160156 80.273438 L 381.621094 80.273438 L 382.421875 81.667969 L 381.621094 83.0625 Z M 573.996094 107.480469 L 572.164062 104.304688 L 591.492188 104.304688 L 593.324219 107.480469 L 596.847656 107.480469 L 596.847656 106.976562 L 598.582031 106.976562 L 598.582031 108.785156 L 596.847656 108.785156 L 596.847656 108.28125 L 573.53125 108.28125 L 556.613281 78.925781 L 548.722656 78.925781 L 567.234375 111.046875 L 588.832031 111.046875 L 588.832031 110.542969 L 590.570312 110.542969 L 590.570312 112.355469 L 588.832031 112.355469 L 588.832031 111.851562 L 566.769531 111.851562 L 547.792969 78.933594 L 531.597656 78.933594 L 531.597656 78.128906 L 557.070312 78.128906 Z M 582.027344 89.417969 L 581.195312 87.972656 L 589.992188 87.972656 L 590.828125 89.417969 L 606.386719 89.417969 L 606.386719 88.914062 L 608.121094 88.914062 L 608.121094 90.726562 L 606.386719 90.726562 L 606.386719 90.222656 L 581.570312 90.222656 L 562.46875 57.085938 L 564.300781 60.257812 L 544.972656 60.257812 L 543.140625 57.085938 L 531.796875 57.085938 L 531.796875 55.476562 L 543.140625 55.476562 L 544.972656 52.304688 L 564.300781 52.304688 L 562.46875 55.476562 L 581.570312 22.339844 L 606.386719 22.339844 L 606.386719 21.835938 L 608.121094 21.835938 L 608.121094 23.648438 L 606.386719 23.648438 L 606.386719 23.144531 L 590.828125 23.144531 L 589.992188 24.589844 L 581.195312 24.589844 L 582.027344 23.144531 L 563.390625 55.476562 L 573.363281 55.476562 L 585.734375 34.011719 L 642.441406 34.011719 L 642.441406 33.507812 L 644.179688 33.507812 L 644.179688 35.320312 L 642.441406 35.320312 L 642.441406 34.816406 L 586.199219 34.816406 L 576.304688 51.984375 L 589.710938 51.984375 L 597.105469 39.152344 L 628.332031 39.152344 L 628.332031 38.648438 L 630.070312 38.648438 L 630.070312 40.457031 L 628.332031 40.457031 L 628.332031 39.953125 L 597.5625 39.953125 L 590.167969 52.789062 L 575.832031 52.789062 L 573.820312 56.28125 L 575.832031 59.773438 L 590.167969 59.773438 L 597.5625 72.609375 L 628.332031 72.609375 L 628.332031 72.105469 L 630.070312 72.105469 L 630.070312 73.914062 L 628.332031 73.914062 L 628.332031 73.414062 L 597.105469 73.414062 L 589.710938 60.578125 L 576.304688 60.578125 L 586.199219 77.746094 L 642.441406 77.746094 L 642.441406 77.242188 L 644.179688 77.242188 L 644.179688 79.054688 L 642.441406 79.054688 L 642.441406 78.550781 L 585.734375 78.550781 L 573.363281 57.085938 L 563.390625 57.085938 Z M 595.304688 82.710938 L 597.035156 82.710938 L 596.433594 81.667969 L 597.035156 80.625 L 595.304688 80.625 L 594.703125 81.667969 Z M 591.816406 82.710938 L 593.546875 82.710938 L 592.945312 81.667969 L 593.546875 80.625 L 591.816406 80.625 L 591.214844 81.667969 Z M 593.847656 83.0625 L 591.617188 83.0625 L 590.8125 81.667969 L 591.617188 80.273438 L 594.15625 80.273438 L 593.355469 81.667969 L 594.15625 83.0625 Z M 588.332031 82.710938 L 590.0625 82.710938 L 589.460938 81.667969 L 590.0625 80.625 L 588.332031 80.625 L 587.730469 81.667969 Z M 590.363281 83.0625 L 588.128906 83.0625 L 587.328125 81.667969 L 588.128906 80.273438 L 590.667969 80.273438 L 589.867188 81.667969 L 590.667969 83.0625 Z M 597.335938 83.0625 L 595.101562 83.0625 L 594.300781 81.667969 L 595.101562 80.273438 L 597.644531 80.273438 L 596.839844 81.667969 L 597.644531 83.0625 Z M 605.894531 82.710938 L 607.625 82.710938 L 607.023438 81.667969 L 607.625 80.625 L 605.894531 80.625 L 605.292969 81.667969 Z M 602.414062 82.710938 L 604.144531 82.710938 L 603.542969 81.667969 L 604.144531 80.625 L 602.414062 80.625 L 601.8125 81.667969 Z M 604.445312 83.0625 L 602.214844 83.0625 L 601.410156 81.667969 L 602.214844 80.273438 L 604.753906 80.273438 L 603.953125 81.667969 L 604.753906 83.0625 Z M 598.929688 82.710938 L 600.660156 82.710938 L 600.058594 81.667969 L 600.660156 80.625 L 598.929688 80.625 L 598.328125 81.667969 Z M 600.960938 83.0625 L 598.726562 83.0625 L 597.925781 81.667969 L 598.726562 80.273438 L 601.269531 80.273438 L 600.464844 81.667969 L 601.269531 83.0625 Z M 607.933594 83.0625 L 605.703125 83.0625 L 604.898438 81.667969 L 605.703125 80.273438 L 608.242188 80.273438 L 607.4375 81.667969 L 608.242188 83.0625 Z M 562.21875 66.566406 L 531.609375 66.566406 L 531.609375 67.367188 L 561.984375 67.367188 L 579.757812 98.207031 L 615.515625 98.207031 L 615.515625 98.710938 L 617.253906 98.710938 L 617.253906 96.898438 L 615.515625 96.898438 L 615.515625 97.402344 L 580.222656 97.402344 L 579.625 96.371094 L 615.515625 96.371094 L 615.515625 96.875 L 617.253906 96.875 L 617.253906 95.066406 L 615.515625 95.066406 L 615.515625 95.566406 L 579.164062 95.566406 L 562.445312 66.566406 Z M 427.640625 66.566406 L 458.25 66.566406 L 458.25 67.367188 L 427.875 67.367188 L 410.101562 98.207031 L 374.339844 98.207031 L 374.339844 98.710938 L 372.601562 98.710938 L 372.601562 96.898438 L 374.339844 96.898438 L 374.339844 97.402344 L 409.632812 97.402344 L 410.226562 96.371094 L 374.339844 96.371094 L 374.339844 96.875 L 372.601562 96.875 L 372.601562 95.066406 L 374.339844 95.066406 L 374.339844 95.566406 L 410.691406 95.566406 L 427.410156 66.566406 Z M 502.707031 24.644531 C 501.859375 24.4375 501 24.261719 500.140625 24.125 L 499.746094 26.613281 C 500.542969 26.742188 501.328125 26.902344 502.109375 27.097656 Z M 507.660156 26.304688 C 506.859375 25.957031 506.042969 25.652344 505.214844 25.375 L 504.425781 27.769531 C 505.191406 28.027344 505.941406 28.308594 506.683594 28.628906 Z M 512.292969 28.742188 C 511.5625 28.269531 510.796875 27.832031 510.023438 27.429688 L 508.863281 29.664062 C 509.574219 30.035156 510.277344 30.445312 510.953125 30.871094 Z M 516.472656 31.882812 C 515.820312 31.304688 515.140625 30.75 514.445312 30.230469 L 512.941406 32.246094 C 513.585938 32.738281 514.207031 33.246094 514.816406 33.78125 Z M 520.097656 35.65625 C 519.542969 34.980469 518.96875 34.332031 518.359375 33.699219 L 516.546875 35.449219 C 517.105469 36.035156 517.636719 36.636719 518.152344 37.261719 Z M 523.074219 39.960938 C 522.636719 39.199219 522.171875 38.472656 521.675781 37.75 L 519.605469 39.1875 C 520.066406 39.855469 520.496094 40.53125 520.90625 41.230469 Z M 525.324219 44.683594 C 525.011719 43.867188 524.671875 43.0625 524.296875 42.277344 L 522.035156 43.371094 C 522.378906 44.101562 522.691406 44.84375 522.980469 45.597656 Z M 526.785156 49.722656 C 526.617188 48.867188 526.398438 48.015625 526.160156 47.179688 L 523.746094 47.882812 C 523.964844 48.65625 524.164062 49.441406 524.324219 50.230469 Z M 527.414062 54.917969 C 527.375 54.046875 527.308594 53.171875 527.199219 52.304688 L 524.703125 52.625 C 524.804688 53.421875 524.867188 54.234375 524.898438 55.03125 Z M 527.21875 60.152344 C 527.320312 59.277344 527.390625 58.417969 527.421875 57.542969 L 524.90625 57.449219 C 524.875 58.261719 524.8125 59.058594 524.71875 59.867188 Z M 526.183594 65.289062 C 526.421875 64.449219 526.628906 63.601562 526.804688 62.746094 L 524.335938 62.253906 C 524.179688 63.046875 523.984375 63.824219 523.765625 64.605469 Z M 524.339844 70.191406 C 524.710938 69.398438 525.054688 68.59375 525.363281 67.777344 L 523.003906 66.898438 C 522.722656 67.652344 522.402344 68.394531 522.066406 69.121094 Z M 521.734375 74.730469 C 522.226562 74.007812 522.691406 73.273438 523.125 72.515625 L 520.941406 71.257812 C 520.535156 71.953125 520.109375 72.640625 519.652344 73.304688 Z M 518.433594 78.789062 C 519.035156 78.160156 519.621094 77.5 520.164062 76.824219 L 518.207031 75.238281 C 517.699219 75.863281 517.167969 76.472656 516.617188 77.050781 Z M 514.527344 82.277344 C 515.222656 81.753906 515.90625 81.1875 516.554688 80.609375 L 514.871094 78.734375 C 514.28125 79.265625 513.648438 79.789062 513.007812 80.265625 Z M 510.125 85.082031 C 510.894531 84.675781 511.648438 84.234375 512.382812 83.765625 L 511.023438 81.640625 C 510.339844 82.074219 509.648438 82.476562 508.933594 82.859375 Z M 505.316406 87.15625 C 506.144531 86.878906 506.957031 86.566406 507.761719 86.222656 L 506.765625 83.902344 C 506.023438 84.21875 505.269531 84.511719 504.507812 84.769531 Z M 500.234375 88.417969 C 501.09375 88.28125 501.953125 88.097656 502.800781 87.890625 L 502.1875 85.449219 C 501.410156 85.644531 500.617188 85.804688 499.820312 85.9375 Z M 495.03125 88.851562 C 495.902344 88.851562 496.78125 88.816406 497.644531 88.738281 L 497.425781 86.226562 L 497.433594 86.226562 C 496.628906 86.289062 495.828125 86.328125 495.019531 86.328125 Z M 489.820312 88.449219 C 490.683594 88.582031 491.539062 88.683594 492.410156 88.753906 L 492.597656 86.238281 C 491.789062 86.175781 491 86.082031 490.195312 85.957031 Z M 484.738281 87.21875 C 485.566406 87.488281 486.40625 87.734375 487.253906 87.941406 L 487.835938 85.492188 C 487.054688 85.304688 486.28125 85.078125 485.515625 84.828125 Z M 479.917969 85.179688 C 480.6875 85.585938 481.484375 85.957031 482.289062 86.296875 L 483.253906 83.972656 C 482.515625 83.652344 481.792969 83.320312 481.078125 82.941406 Z M 475.496094 82.394531 C 476.199219 82.917969 476.914062 83.414062 477.652344 83.878906 L 478.984375 81.742188 C 478.300781 81.316406 477.640625 80.855469 476.988281 80.371094 Z M 471.570312 78.933594 C 472.179688 79.5625 472.804688 80.160156 473.457031 80.742188 L 475.121094 78.847656 C 474.511719 78.3125 473.933594 77.753906 473.371094 77.175781 Z M 468.242188 74.894531 C 468.742188 75.609375 469.261719 76.300781 469.820312 76.980469 L 471.757812 75.378906 C 471.246094 74.75 470.761719 74.117188 470.296875 73.449219 Z M 465.605469 70.371094 C 465.984375 71.15625 466.398438 71.9375 466.835938 72.691406 L 469 71.40625 C 468.597656 70.71875 468.214844 70 467.871094 69.277344 Z M 463.730469 65.484375 C 463.976562 66.324219 464.257812 67.148438 464.574219 67.964844 L 466.917969 67.054688 C 466.628906 66.300781 466.371094 65.539062 466.144531 64.761719 Z M 462.664062 60.351562 C 462.773438 61.21875 462.917969 62.085938 463.09375 62.941406 L 465.558594 62.417969 C 465.394531 61.632812 465.261719 60.828125 465.160156 60.03125 Z M 462.433594 55.125 C 462.402344 56 462.410156 56.867188 462.445312 57.738281 L 464.960938 57.625 C 464.929688 56.816406 464.921875 56.011719 464.949219 55.199219 Z M 463.035156 49.917969 C 462.886719 50.796875 462.734375 51.621094 462.628906 52.507812 L 465.128906 52.789062 C 465.222656 51.972656 465.363281 51.210938 465.5 50.402344 Z M 464.464844 44.878906 C 464.164062 45.683594 463.875 46.542969 463.652344 47.378906 L 466.078125 48.050781 L 466.078125 48.058594 C 466.296875 47.285156 466.546875 46.511719 466.828125 45.757812 Z M 466.6875 40.136719 C 466.253906 40.898438 465.851562 41.667969 465.480469 42.460938 L 467.757812 43.527344 C 468.101562 42.800781 468.472656 42.085938 468.875 41.378906 Z M 469.640625 35.816406 C 469.09375 36.488281 468.5625 37.203125 468.070312 37.917969 L 470.152344 39.332031 C 470.613281 38.667969 471.089844 38.019531 471.597656 37.398438 Z M 473.238281 32.015625 C 472.59375 32.59375 471.960938 33.207031 471.359375 33.84375 L 473.1875 35.570312 C 473.742188 34.984375 474.324219 34.421875 474.917969 33.886719 Z M 477.398438 28.847656 C 476.664062 29.320312 475.949219 29.820312 475.257812 30.351562 L 476.789062 32.347656 C 477.429688 31.859375 478.09375 31.398438 478.769531 30.960938 Z M 482.011719 26.386719 C 481.210938 26.730469 480.425781 27.113281 479.652344 27.523438 L 480.839844 29.746094 C 481.554688 29.371094 482.277344 29.019531 483.015625 28.699219 Z M 486.960938 24.695312 C 486.113281 24.910156 485.273438 25.15625 484.453125 25.4375 L 485.273438 27.816406 C 486.03125 27.554688 486.808594 27.335938 487.585938 27.132812 Z M 492.121094 23.828125 C 491.253906 23.90625 490.382812 24.011719 489.523438 24.15625 L 489.949219 26.636719 C 490.742188 26.503906 491.542969 26.40625 492.347656 26.335938 Z M 509.097656 24.914062 C 507.160156 24.035156 505.164062 23.359375 503.109375 22.84375 L 502.957031 23.453125 C 504.984375 23.953125 506.9375 24.621094 508.839844 25.488281 Z M 516.132812 29.199219 C 514.453125 27.886719 512.695312 26.742188 510.808594 25.757812 L 510.519531 26.316406 C 512.375 27.289062 514.09375 28.410156 515.75 29.703125 Z M 521.953125 35.03125 C 520.628906 33.351562 519.199219 31.832031 517.59375 30.417969 L 517.179688 30.890625 C 518.753906 32.277344 520.160156 33.765625 521.457031 35.417969 Z M 526.234375 42.070312 C 525.351562 40.128906 524.308594 38.308594 523.09375 36.554688 L 522.578125 36.921875 C 523.777344 38.640625 524.792969 40.425781 525.664062 42.335938 Z M 528.707031 49.941406 C 528.316406 47.863281 527.738281 45.804688 526.96875 43.835938 L 526.386719 44.070312 C 527.144531 45.996094 527.707031 48.035156 528.085938 50.0625 Z M 529.238281 58.171875 C 529.351562 56.0625 529.277344 53.925781 529.007812 51.828125 L 528.386719 51.910156 C 528.65625 53.96875 528.726562 56.066406 528.617188 58.140625 Z M 527.808594 66.292969 C 528.421875 64.246094 528.84375 62.207031 529.074219 60.074219 L 528.449219 60.007812 C 528.21875 62.09375 527.804688 64.101562 527.199219 66.113281 Z M 524.484375 73.839844 C 525.558594 72.035156 526.492188 70.078125 527.207031 68.105469 L 526.617188 67.890625 C 525.902344 69.84375 525.007812 71.734375 523.945312 73.519531 Z M 519.46875 80.371094 C 520.949219 78.859375 522.289062 77.207031 523.46875 75.449219 L 522.949219 75.09375 C 521.796875 76.816406 520.472656 78.445312 519.015625 79.925781 Z M 513.039062 85.535156 C 514.835938 84.425781 516.539062 83.125 518.09375 81.703125 L 517.667969 81.238281 C 516.140625 82.640625 514.472656 83.910156 512.707031 85.003906 Z M 505.578125 89.015625 C 507.597656 88.351562 509.527344 87.519531 511.398438 86.496094 L 511.097656 85.945312 C 509.265625 86.949219 507.367188 87.765625 505.382812 88.417969 Z M 497.5 90.605469 C 499.582031 90.453125 501.734375 90.097656 503.753906 89.554688 L 503.589844 88.945312 C 501.609375 89.480469 499.5 89.828125 497.457031 89.976562 Z M 489.28125 90.234375 C 491.398438 90.582031 493.457031 90.726562 495.601562 90.695312 L 495.582031 90.066406 C 493.675781 90.171875 491.261719 89.921875 489.375 89.613281 Z M 481.378906 87.917969 C 483.324219 88.746094 485.347656 89.417969 487.410156 89.871094 L 487.542969 89.253906 C 485.5 88.796875 483.546875 88.160156 481.625 87.339844 Z M 474.261719 83.777344 C 475.964844 85.058594 477.742188 86.164062 479.648438 87.121094 L 479.929688 86.554688 C 478.054688 85.613281 476.3125 84.539062 474.636719 83.273438 Z M 468.324219 78.0625 C 469.671875 79.707031 471.144531 81.214844 472.769531 82.582031 L 473.167969 82.101562 C 471.589844 80.773438 470.117188 79.253906 468.804688 77.660156 Z M 463.90625 71.101562 C 464.824219 73.015625 465.90625 74.839844 467.15625 76.554688 L 467.664062 76.175781 C 466.441406 74.5 465.367188 72.695312 464.476562 70.824219 Z M 461.285156 63.28125 C 461.71875 65.351562 462.332031 67.394531 463.144531 69.355469 L 463.726562 69.109375 C 462.9375 67.179688 462.328125 65.1875 461.90625 63.148438 Z M 460.597656 55.0625 C 460.519531 57.171875 460.640625 59.308594 460.953125 61.402344 L 461.574219 61.308594 C 461.265625 59.246094 461.15625 57.160156 461.222656 55.082031 Z M 461.863281 46.914062 C 461.285156 48.976562 460.910156 51.03125 460.714844 53.160156 L 461.34375 53.214844 C 461.539062 51.125 461.90625 49.109375 462.472656 47.085938 Z M 465.035156 39.308594 C 463.996094 41.140625 463.109375 43.101562 462.425781 45.101562 L 463.023438 45.300781 C 463.695312 43.339844 464.558594 41.425781 465.582031 39.621094 Z M 469.929688 32.675781 C 468.480469 34.199219 467.164062 35.910156 466.019531 37.675781 L 466.546875 38.015625 C 467.671875 36.273438 468.960938 34.601562 470.386719 33.109375 Z M 476.253906 27.390625 C 474.488281 28.535156 472.804688 29.871094 471.277344 31.324219 L 471.707031 31.78125 C 473.207031 30.355469 474.855469 29.042969 476.59375 27.925781 Z M 483.640625 23.765625 C 481.636719 24.46875 479.722656 25.34375 477.875 26.398438 L 478.1875 26.945312 C 480 25.910156 481.878906 25.046875 483.847656 24.363281 Z M 491.695312 22.015625 C 489.601562 22.207031 487.488281 22.605469 485.460938 23.1875 L 485.636719 23.792969 C 487.617188 23.21875 489.699219 22.832031 491.75 22.640625 Z M 501.246094 22.445312 C 499.144531 22.058594 497.070312 21.875 494.929688 21.871094 L 494.929688 22.496094 C 497.03125 22.503906 499.0625 22.6875 501.125 23.070312 L 501.246094 22.445312 L 494.929688 21.863281 C 494.484375 21.863281 494.039062 21.871094 493.589844 21.886719 L 493.613281 22.515625 C 494.046875 22.492188 494.492188 22.492188 494.925781 22.492188 Z M 468.699219 61.917969 C 468.503906 60.992188 468.355469 60.0625 468.253906 59.113281 L 468.253906 59.109375 C 468.152344 58.152344 468.101562 57.203125 468.101562 56.28125 C 468.101562 48.855469 471.105469 42.140625 475.960938 37.277344 C 480.8125 32.417969 487.523438 29.40625 494.929688 29.40625 C 495.527344 29.40625 496.140625 29.433594 496.78125 29.476562 C 497.386719 29.519531 498.003906 29.582031 498.625 29.671875 L 498.277344 32.160156 C 497.734375 32.082031 497.175781 32.027344 496.609375 31.984375 C 496.070312 31.945312 495.511719 31.925781 494.929688 31.925781 C 488.214844 31.925781 482.136719 34.652344 477.734375 39.0625 C 473.332031 43.472656 470.613281 49.558594 470.613281 56.289062 C 470.613281 57.167969 470.65625 58.023438 470.742188 58.855469 C 470.832031 59.703125 470.96875 60.554688 471.152344 61.402344 Z M 497.816406 36.652344 C 497.496094 36.605469 497.179688 36.570312 496.855469 36.53125 L 496.769531 37.472656 C 497.074219 37.503906 497.375 37.542969 497.683594 37.585938 Z M 499.714844 37.027344 C 499.402344 36.953125 499.089844 36.875 498.769531 36.820312 L 498.59375 37.75 C 498.894531 37.804688 499.195312 37.875 499.488281 37.949219 Z M 501.566406 37.585938 C 501.265625 37.480469 500.957031 37.378906 500.648438 37.285156 L 500.378906 38.191406 C 500.675781 38.277344 500.964844 38.371094 501.25 38.480469 Z M 503.351562 38.320312 C 503.058594 38.183594 502.761719 38.050781 502.46875 37.933594 L 502.109375 38.804688 C 502.394531 38.925781 502.675781 39.042969 502.949219 39.175781 Z M 505.058594 39.230469 C 504.78125 39.070312 504.5 38.910156 504.21875 38.753906 L 503.777344 39.589844 C 504.046875 39.734375 504.316406 39.886719 504.582031 40.042969 Z M 506.664062 40.300781 C 506.40625 40.113281 506.144531 39.921875 505.875 39.746094 L 505.351562 40.539062 C 505.609375 40.707031 505.859375 40.882812 506.105469 41.066406 Z M 508.164062 41.523438 C 507.925781 41.304688 507.671875 41.097656 507.429688 40.898438 L 506.839844 41.632812 C 507.078125 41.828125 507.308594 42.023438 507.535156 42.230469 Z M 509.535156 42.886719 C 509.316406 42.648438 509.097656 42.417969 508.863281 42.191406 L 508.199219 42.863281 C 508.417969 43.082031 508.632812 43.304688 508.839844 43.527344 Z M 510.769531 44.371094 C 510.578125 44.113281 510.375 43.863281 510.167969 43.609375 L 509.449219 44.214844 C 509.640625 44.453125 509.835938 44.691406 510.019531 44.9375 Z M 511.855469 45.972656 C 511.6875 45.695312 511.515625 45.425781 511.335938 45.15625 L 510.558594 45.691406 C 510.734375 45.941406 510.894531 46.207031 511.054688 46.46875 Z M 512.777344 47.675781 C 512.640625 47.386719 512.488281 47.089844 512.339844 46.816406 L 511.511719 47.273438 C 511.660156 47.542969 511.800781 47.820312 511.929688 48.097656 Z M 513.53125 49.460938 C 513.417969 49.15625 513.304688 48.851562 513.171875 48.5625 L 512.308594 48.929688 C 512.425781 49.214844 512.539062 49.503906 512.644531 49.792969 Z M 514.105469 51.304688 C 514.027344 51 513.945312 50.679688 513.84375 50.375 L 512.945312 50.660156 C 513.035156 50.953125 513.121094 51.25 513.199219 51.542969 Z M 514.496094 53.203125 C 514.445312 52.882812 514.390625 52.5625 514.328125 52.25 L 513.40625 52.441406 C 513.46875 52.746094 513.523438 53.046875 513.566406 53.347656 Z M 514.703125 55.125 C 514.683594 54.804688 514.660156 54.484375 514.621094 54.164062 L 513.679688 54.265625 C 513.710938 54.574219 513.738281 54.878906 513.757812 55.1875 Z M 514.722656 57.058594 C 514.734375 56.738281 514.742188 56.414062 514.734375 56.09375 L 513.792969 56.105469 C 513.800781 56.414062 513.792969 56.722656 513.78125 57.027344 Z M 514.550781 58.988281 C 514.597656 58.667969 514.632812 58.347656 514.660156 58.027344 L 513.71875 57.953125 C 513.691406 58.261719 513.65625 58.5625 513.617188 58.871094 Z M 514.195312 60.890625 C 514.269531 60.578125 514.339844 60.265625 514.394531 59.945312 L 513.46875 59.773438 C 513.410156 60.074219 513.347656 60.378906 513.277344 60.671875 Z M 513.65625 62.75 C 513.761719 62.445312 513.851562 62.140625 513.949219 61.828125 L 513.039062 61.570312 C 512.953125 61.867188 512.859375 62.160156 512.757812 62.449219 Z M 512.941406 64.546875 C 513.074219 64.253906 513.203125 63.957031 513.324219 63.65625 L 512.445312 63.3125 C 512.332031 63.59375 512.207031 63.875 512.082031 64.160156 Z M 512.042969 66.269531 C 512.207031 65.992188 512.363281 65.703125 512.515625 65.421875 L 511.675781 64.988281 C 511.53125 65.257812 511.386719 65.527344 511.230469 65.792969 Z M 510.992188 67.890625 C 511.179688 67.625 511.359375 67.363281 511.535156 67.09375 L 510.746094 66.578125 C 510.578125 66.835938 510.40625 67.085938 510.226562 67.335938 Z M 509.785156 69.398438 C 510 69.152344 510.207031 68.90625 510.40625 68.65625 L 509.667969 68.066406 C 509.472656 68.304688 509.277344 68.542969 509.078125 68.769531 Z M 508.445312 70.785156 C 508.675781 70.566406 508.910156 70.339844 509.132812 70.109375 L 508.457031 69.453125 C 508.242188 69.675781 508.023438 69.886719 507.796875 70.101562 Z M 506.964844 72.035156 C 507.222656 71.839844 507.480469 71.632812 507.71875 71.425781 L 507.101562 70.710938 C 506.871094 70.90625 506.632812 71.101562 506.386719 71.289062 Z M 505.378906 73.136719 C 505.652344 72.964844 505.917969 72.789062 506.1875 72.609375 L 505.648438 71.828125 C 505.398438 72.003906 505.140625 72.175781 504.875 72.339844 Z M 503.691406 74.078125 C 503.980469 73.933594 504.269531 73.78125 504.542969 73.625 L 504.085938 72.804688 C 503.816406 72.953125 503.546875 73.097656 503.269531 73.230469 Z M 501.917969 74.851562 C 502.21875 74.738281 502.519531 74.617188 502.8125 74.484375 L 502.4375 73.621094 C 502.15625 73.738281 501.871094 73.859375 501.582031 73.964844 Z M 500.078125 75.441406 C 500.390625 75.359375 500.699219 75.265625 501.007812 75.164062 L 500.71875 74.265625 C 500.421875 74.359375 500.136719 74.449219 499.835938 74.523438 Z M 498.183594 75.855469 C 498.5 75.8125 498.824219 75.742188 499.132812 75.671875 L 498.929688 74.75 C 498.636719 74.8125 498.324219 74.882812 498.027344 74.917969 Z M 496.273438 76.074219 C 496.59375 76.058594 496.917969 76.023438 497.238281 75.988281 L 497.125 75.050781 C 496.824219 75.089844 496.515625 75.113281 496.210938 75.132812 Z M 494.339844 76.113281 C 494.660156 76.121094 494.980469 76.125 495.304688 76.121094 L 495.289062 75.175781 C 494.980469 75.183594 494.671875 75.183594 494.367188 75.171875 Z M 492.414062 75.960938 C 492.734375 76 493.054688 76.039062 493.375 76.0625 L 493.445312 75.121094 C 493.136719 75.09375 492.835938 75.0625 492.527344 75.027344 Z M 490.507812 75.625 C 490.824219 75.691406 491.144531 75.761719 491.457031 75.816406 L 491.613281 74.886719 C 491.3125 74.832031 491.011719 74.773438 490.710938 74.707031 Z M 488.648438 75.101562 C 488.953125 75.203125 489.261719 75.296875 489.570312 75.382812 L 489.820312 74.472656 C 489.523438 74.390625 489.230469 74.296875 488.941406 74.203125 Z M 486.847656 74.398438 C 487.140625 74.53125 487.4375 74.65625 487.738281 74.773438 L 488.074219 73.894531 C 487.789062 73.78125 487.503906 73.664062 487.230469 73.539062 Z M 485.128906 73.523438 C 485.410156 73.683594 485.691406 73.839844 485.980469 73.984375 L 486.40625 73.140625 C 486.132812 73.003906 485.863281 72.859375 485.597656 72.703125 Z M 483.5 72.480469 C 483.761719 72.671875 484.03125 72.847656 484.300781 73.023438 L 484.800781 72.226562 C 484.546875 72.0625 484.289062 71.886719 484.039062 71.710938 Z M 481.972656 71.289062 C 482.21875 71.496094 482.464844 71.703125 482.71875 71.90625 L 483.296875 71.15625 C 483.054688 70.96875 482.820312 70.773438 482.589844 70.574219 Z M 480.574219 69.949219 C 480.796875 70.183594 481.027344 70.410156 481.257812 70.636719 L 481.910156 69.949219 C 481.691406 69.738281 481.472656 69.523438 481.257812 69.296875 Z M 479.316406 68.488281 C 479.515625 68.738281 479.71875 68.988281 479.929688 69.234375 L 480.644531 68.617188 C 480.445312 68.386719 480.25 68.148438 480.0625 67.910156 Z M 478.207031 66.902344 C 478.375 67.175781 478.558594 67.445312 478.746094 67.707031 L 479.515625 67.160156 C 479.339844 66.910156 479.171875 66.652344 479 66.394531 Z M 477.246094 65.226562 C 477.390625 65.515625 477.539062 65.796875 477.703125 66.082031 L 478.519531 65.609375 C 478.367188 65.347656 478.222656 65.070312 478.085938 64.800781 Z M 476.460938 63.457031 C 476.582031 63.757812 476.699219 64.050781 476.832031 64.347656 L 477.691406 63.957031 C 477.566406 63.675781 477.445312 63.390625 477.339844 63.109375 Z M 475.855469 61.621094 C 475.941406 61.933594 476.035156 62.242188 476.136719 62.542969 L 477.027344 62.242188 C 476.925781 61.953125 476.839844 61.660156 476.757812 61.363281 Z M 475.425781 59.730469 C 475.484375 60.050781 475.546875 60.363281 475.617188 60.679688 L 476.539062 60.464844 C 476.46875 60.167969 476.410156 59.863281 476.355469 59.5625 Z M 475.183594 57.8125 C 475.207031 58.132812 475.238281 58.453125 475.277344 58.773438 L 476.210938 58.65625 C 476.171875 58.347656 476.140625 58.046875 476.117188 57.738281 Z M 475.132812 55.875 C 475.125 56.195312 475.125 56.519531 475.140625 56.839844 L 476.078125 56.808594 C 476.074219 56.5 476.074219 56.195312 476.074219 55.886719 Z M 475.265625 53.945312 C 475.226562 54.265625 475.195312 54.585938 475.175781 54.910156 L 476.117188 54.976562 C 476.136719 54.667969 476.167969 54.367188 476.207031 54.058594 Z M 475.585938 52.035156 C 475.515625 52.355469 475.453125 52.664062 475.402344 52.984375 L 476.332031 53.140625 C 476.378906 52.839844 476.445312 52.539062 476.507812 52.234375 Z M 476.085938 50.167969 C 475.984375 50.476562 475.898438 50.785156 475.808594 51.097656 L 476.71875 51.335938 C 476.800781 51.042969 476.886719 50.746094 476.984375 50.453125 Z M 476.769531 48.359375 C 476.644531 48.65625 476.519531 48.957031 476.40625 49.257812 L 477.289062 49.589844 C 477.398438 49.300781 477.515625 49.019531 477.636719 48.738281 Z M 477.628906 46.625 C 477.472656 46.910156 477.320312 47.191406 477.175781 47.480469 L 478.023438 47.894531 C 478.15625 47.617188 478.304688 47.347656 478.449219 47.078125 Z M 478.652344 44.980469 C 478.46875 45.242188 478.292969 45.515625 478.117188 45.789062 L 478.921875 46.292969 C 479.082031 46.03125 479.253906 45.777344 479.429688 45.519531 Z M 479.828125 43.449219 C 479.621094 43.691406 479.421875 43.945312 479.222656 44.203125 L 479.96875 44.777344 C 480.15625 44.535156 480.351562 44.296875 480.542969 44.0625 Z M 481.148438 42.035156 C 480.914062 42.261719 480.6875 42.488281 480.46875 42.726562 L 481.160156 43.371094 C 481.371094 43.144531 481.585938 42.925781 481.804688 42.710938 Z M 482.601562 40.757812 C 482.351562 40.960938 482.105469 41.167969 481.863281 41.378906 L 482.488281 42.089844 C 482.71875 41.890625 482.953125 41.6875 483.195312 41.5 Z M 484.167969 39.628906 C 483.898438 39.804688 483.628906 39.984375 483.371094 40.175781 L 483.925781 40.941406 C 484.175781 40.765625 484.425781 40.589844 484.683594 40.417969 Z M 485.835938 38.65625 C 485.550781 38.800781 485.265625 38.957031 484.992188 39.121094 L 485.46875 39.9375 C 485.730469 39.785156 486 39.632812 486.277344 39.488281 Z M 487.597656 37.851562 C 487.296875 37.96875 487.003906 38.09375 486.710938 38.234375 L 487.105469 39.09375 C 487.386719 38.96875 487.667969 38.84375 487.949219 38.730469 Z M 489.425781 37.222656 C 489.117188 37.308594 488.804688 37.410156 488.503906 37.511719 L 488.808594 38.402344 C 489.097656 38.300781 489.394531 38.207031 489.6875 38.125 Z M 491.304688 36.777344 C 491 36.828125 490.667969 36.902344 490.359375 36.976562 L 490.578125 37.894531 C 490.867188 37.824219 491.1875 37.75 491.480469 37.707031 Z M 493.21875 36.519531 C 492.898438 36.542969 492.574219 36.582031 492.257812 36.625 L 492.390625 37.5625 C 492.691406 37.515625 493 37.484375 493.304688 37.460938 Z M 495.894531 36.46875 C 495.578125 36.457031 495.257812 36.441406 494.929688 36.441406 L 494.929688 37.386719 C 495.238281 37.386719 495.542969 37.390625 495.851562 37.410156 L 495.894531 36.46875 L 494.929688 36.441406 C 494.679688 36.441406 494.433594 36.449219 494.183594 36.457031 L 494.222656 37.398438 C 494.460938 37.390625 494.691406 37.386719 494.929688 37.386719 Z M 508.957031 55.519531 C 508.964844 55.609375 508.972656 55.742188 508.972656 55.90625 L 508.984375 56.28125 C 508.984375 60.167969 507.410156 63.6875 504.871094 66.230469 C 502.332031 68.777344 498.8125 70.351562 494.9375 70.351562 C 494.359375 70.351562 493.757812 70.316406 493.136719 70.234375 C 492.527344 70.152344 491.933594 70.039062 491.363281 69.886719 L 492 67.457031 C 492.492188 67.582031 492.972656 67.683594 493.449219 67.738281 C 493.921875 67.800781 494.410156 67.828125 494.929688 67.828125 C 498.117188 67.828125 501 66.535156 503.089844 64.441406 C 505.175781 62.351562 506.46875 59.460938 506.46875 56.269531 L 506.46875 55.949219 C 506.46875 55.886719 506.460938 55.785156 506.457031 55.640625 Z M 494.929688 78.769531 C 488.734375 78.769531 483.121094 76.25 479.058594 72.1875 C 474.996094 68.117188 472.488281 62.496094 472.488281 56.289062 C 472.488281 54.980469 472.597656 53.675781 472.824219 52.386719 C 473.050781 51.105469 473.390625 49.835938 473.835938 48.605469 L 474.71875 48.925781 C 474.292969 50.101562 473.964844 51.3125 473.753906 52.550781 C 473.539062 53.78125 473.425781 55.03125 473.425781 56.289062 C 473.425781 62.238281 475.835938 67.621094 479.722656 71.519531 C 483.609375 75.414062 488.992188 77.828125 494.929688 77.828125 Z M 491.542969 34.054688 C 492.101562 33.96875 492.667969 33.90625 493.230469 33.863281 C 493.800781 33.816406 494.367188 33.796875 494.925781 33.796875 C 501.121094 33.796875 506.730469 36.316406 510.796875 40.382812 C 514.859375 44.453125 517.367188 50.074219 517.367188 56.28125 C 517.367188 57.011719 517.332031 57.75 517.253906 58.5 C 517.179688 59.246094 517.074219 59.976562 516.929688 60.691406 L 516 60.507812 C 516.140625 59.804688 516.246094 59.101562 516.316406 58.40625 C 516.382812 57.707031 516.414062 57.003906 516.414062 56.28125 C 516.414062 50.332031 514.007812 44.949219 510.117188 41.046875 C 506.230469 37.148438 500.851562 34.742188 494.910156 34.742188 C 494.367188 34.742188 493.820312 34.757812 493.289062 34.804688 C 492.746094 34.839844 492.207031 34.902344 491.667969 34.984375 Z M 494.929688 28.28125 C 502.648438 28.28125 509.636719 31.417969 514.695312 36.488281 C 519.757812 41.558594 522.886719 48.554688 522.886719 56.289062 C 522.886719 64.019531 519.757812 71.019531 514.695312 76.089844 C 509.636719 81.15625 502.648438 84.292969 494.929688 84.292969 C 487.210938 84.292969 480.226562 81.15625 475.164062 76.089844 C 470.101562 71.019531 466.972656 64.019531 466.972656 56.289062 L 467.289062 56.289062 C 467.289062 63.933594 470.378906 70.855469 475.382812 75.863281 C 480.386719 80.875 487.292969 83.972656 494.925781 83.972656 C 502.554688 83.972656 509.464844 80.875 514.464844 75.863281 C 519.46875 70.847656 522.558594 63.933594 522.558594 56.289062 C 522.558594 48.644531 519.46875 41.71875 514.464844 36.714844 C 509.460938 31.699219 502.554688 28.601562 494.925781 28.601562 L 494.925781 28.28125 Z M 480.878906 56.28125 C 480.878906 52.394531 482.449219 48.875 484.992188 46.332031 C 487.53125 43.785156 491.046875 42.210938 494.925781 42.210938 C 495.132812 42.210938 495.382812 42.214844 495.671875 42.234375 C 495.925781 42.246094 496.179688 42.265625 496.421875 42.296875 L 496.160156 44.796875 C 495.945312 44.773438 495.746094 44.761719 495.542969 44.746094 C 495.375 44.742188 495.167969 44.734375 494.925781 44.734375 C 491.738281 44.734375 488.855469 46.03125 486.765625 48.121094 C 484.675781 50.214844 483.386719 53.101562 483.386719 56.292969 L 480.878906 56.292969 Z M 507.878906 45.320312 C 506.480469 43.667969 504.832031 42.328125 502.933594 41.304688 L 502.636719 41.859375 C 504.476562 42.851562 506.054688 44.136719 507.402344 45.726562 Z M 511.511719 52.738281 C 511.058594 50.632812 510.226562 48.648438 509.035156 46.859375 L 508.511719 47.210938 C 509.660156 48.929688 510.464844 50.847656 510.894531 52.871094 Z M 511.222656 60.992188 C 511.804688 58.964844 512.023438 56.734375 511.804688 54.636719 L 511.179688 54.699219 C 511.398438 56.691406 511.164062 58.894531 510.613281 60.816406 Z M 507.070312 68.136719 C 508.574219 66.582031 509.75 64.8125 510.582031 62.816406 L 510 62.574219 C 509.195312 64.5 508.066406 66.207031 506.613281 67.703125 Z M 500.054688 72.476562 C 502.074219 71.847656 504.015625 70.773438 505.652344 69.4375 L 505.253906 68.953125 C 503.671875 70.246094 501.808594 71.269531 499.859375 71.878906 Z M 491.820312 72.980469 C 493.921875 73.367188 496.097656 73.363281 498.191406 72.945312 L 498.070312 72.332031 C 496.054688 72.726562 493.957031 72.734375 491.9375 72.355469 Z M 484.324219 69.535156 C 486.007812 70.886719 487.894531 71.890625 489.957031 72.527344 L 490.140625 71.921875 C 488.152344 71.308594 486.34375 70.347656 484.722656 69.046875 Z M 479.335938 62.953125 C 480.167969 64.914062 481.398438 66.734375 482.894531 68.242188 L 483.339844 67.796875 C 481.894531 66.320312 480.71875 64.605469 479.910156 62.703125 Z M 478.042969 54.792969 C 477.859375 56.910156 478.066406 59.109375 478.683594 61.144531 L 479.285156 60.960938 C 478.6875 59 478.492188 56.890625 478.667969 54.847656 Z M 480.738281 46.984375 C 479.558594 48.792969 478.75 50.765625 478.3125 52.890625 L 478.925781 53.007812 C 479.335938 50.980469 480.128906 49.058594 481.257812 47.328125 Z M 486.796875 41.378906 C 484.921875 42.40625 483.246094 43.792969 481.878906 45.4375 L 482.363281 45.839844 C 483.675781 44.257812 485.296875 42.914062 487.097656 41.933594 Z M 494.78125 39.300781 C 492.621094 39.320312 490.535156 39.742188 488.535156 40.550781 L 488.773438 41.136719 C 490.691406 40.355469 492.714844 39.949219 494.785156 39.929688 Z M 501.1875 40.496094 C 499.175781 39.695312 497.101562 39.308594 494.929688 39.300781 L 494.929688 39.929688 C 497.019531 39.9375 499.011719 40.3125 500.957031 41.078125 Z M 521.261719 51.113281 C 521.425781 51.941406 521.550781 52.800781 521.632812 53.6875 C 521.71875 54.578125 521.765625 55.445312 521.765625 56.28125 C 521.765625 63.707031 518.761719 70.421875 513.90625 75.285156 C 509.050781 80.144531 502.34375 83.15625 494.929688 83.15625 C 494.226562 83.15625 493.511719 83.125 492.796875 83.066406 C 492.113281 83.011719 491.40625 82.929688 490.679688 82.808594 L 491.074219 80.328125 C 491.6875 80.429688 492.328125 80.503906 493 80.554688 C 493.632812 80.605469 494.277344 80.628906 494.9375 80.628906 C 501.652344 80.628906 507.730469 77.902344 512.132812 73.492188 C 516.535156 69.082031 519.253906 62.996094 519.253906 56.269531 C 519.253906 55.453125 519.21875 54.667969 519.144531 53.914062 C 519.066406 53.152344 518.953125 52.375 518.796875 51.582031 Z M 494.929688 80.304688 C 488.308594 80.304688 482.3125 77.613281 477.972656 73.269531 C 473.632812 68.921875 470.949219 62.914062 470.949219 56.28125 C 470.949219 49.648438 473.632812 43.640625 477.972656 39.296875 C 482.3125 34.949219 488.308594 32.257812 494.929688 32.257812 C 501.550781 32.257812 507.546875 34.949219 511.886719 39.296875 C 516.226562 43.640625 518.910156 49.648438 518.910156 56.28125 L 518.597656 56.28125 C 518.597656 49.734375 515.949219 43.804688 511.667969 39.515625 C 507.382812 35.222656 501.464844 32.574219 494.929688 32.574219 C 488.394531 32.574219 482.476562 35.222656 478.191406 39.515625 C 473.910156 43.804688 471.261719 49.734375 471.261719 56.28125 C 471.261719 62.828125 473.910156 68.757812 478.191406 73.046875 C 482.476562 77.339844 488.394531 79.988281 494.929688 79.988281 Z M 497.539062 23.816406 C 496.667969 23.746094 495.800781 23.714844 494.929688 23.714844 L 494.929688 26.234375 C 495.738281 26.234375 496.542969 26.265625 497.351562 26.328125 L 497.539062 23.816406 L 494.929688 23.714844 L 494.734375 23.714844 L 494.753906 26.234375 L 494.929688 26.234375 Z M 427.640625 45.996094 L 458.25 45.996094 L 458.25 45.195312 L 427.875 45.195312 L 410.101562 14.355469 L 374.339844 14.355469 L 374.339844 13.855469 L 372.601562 13.855469 L 372.601562 15.664062 L 374.339844 15.664062 L 374.339844 15.160156 L 409.632812 15.160156 L 410.226562 16.191406 L 374.339844 16.191406 L 374.339844 15.6875 L 372.601562 15.6875 L 372.601562 17.496094 L 374.339844 17.496094 L 374.339844 16.996094 L 410.691406 16.996094 L 427.410156 45.996094 Z M 427.640625 45.996094"/></g><path fill="#233dff" fill-opacity="1" fill-rule="nonzero" d="M 153.992188 64.734375 L 122.695312 64.734375 L 122.695312 63.816406 L 153.992188 63.816406 L 153.992188 64.734375"/><g clip-path="url(#2c27801e7e)"><path fill="#233dff" fill-opacity="1" fill-rule="nonzero" d="M 159.511719 49.628906 C 158.125 49.628906 157 48.5 157 47.113281 C 157 45.722656 158.125 44.59375 159.511719 44.59375 C 160.902344 44.59375 162.027344 45.722656 162.027344 47.113281 C 162.027344 48.5 160.902344 49.628906 159.511719 49.628906 Z M 159.511719 43.121094 C 157.308594 43.121094 155.523438 44.90625 155.523438 47.113281 C 155.523438 49.316406 157.308594 51.105469 159.511719 51.105469 C 161.714844 51.105469 163.503906 49.316406 163.503906 47.113281 C 163.503906 44.90625 161.714844 43.121094 159.511719 43.121094"/></g><path fill="#233dff" fill-opacity="1" fill-rule="nonzero" d="M 130.976562 76.625 C 129.585938 76.625 128.460938 75.496094 128.460938 74.109375 C 128.460938 72.71875 129.585938 71.589844 130.976562 71.589844 C 132.363281 71.589844 133.492188 72.71875 133.492188 74.109375 C 133.492188 75.496094 132.363281 76.625 130.976562 76.625 Z M 130.976562 70.113281 C 128.773438 70.113281 126.988281 71.902344 126.988281 74.109375 C 126.988281 76.3125 128.773438 78.097656 130.976562 78.097656 C 133.179688 78.097656 134.964844 76.3125 134.964844 74.109375 C 134.964844 71.902344 133.179688 70.113281 130.976562 70.113281"/><path fill="#233dff" fill-opacity="1" fill-rule="nonzero" d="M 48.410156 66.726562 C 46.890625 66.726562 45.65625 67.960938 45.65625 69.480469 C 45.65625 71 46.890625 72.234375 48.410156 72.234375 C 49.929688 72.234375 51.160156 71 51.160156 69.480469 C 51.160156 67.960938 49.929688 66.726562 48.410156 66.726562"/><path fill="#233dff" fill-opacity="1" fill-rule="nonzero" d="M 156.058594 61.523438 C 154.539062 61.523438 153.308594 62.753906 153.308594 64.277344 C 153.308594 65.796875 154.539062 67.03125 156.058594 67.03125 C 157.578125 67.03125 158.8125 65.796875 158.8125 64.277344 C 158.8125 62.753906 157.578125 61.523438 156.058594 61.523438"/><path fill="#233dff" fill-opacity="1" fill-rule="nonzero" d="M 129.738281 35.128906 C 128.21875 35.128906 126.988281 36.359375 126.988281 37.878906 C 126.988281 39.402344 128.21875 40.632812 129.738281 40.632812 C 131.257812 40.632812 132.488281 39.402344 132.488281 37.878906 C 132.488281 36.359375 131.257812 35.128906 129.738281 35.128906"/><path fill="#233dff" fill-opacity="1" fill-rule="nonzero" d="M 113.925781 59.847656 C 112.96875 59.847656 112.191406 59.070312 112.191406 58.109375 C 112.191406 57.152344 112.96875 56.375 113.925781 56.375 C 114.882812 56.375 115.660156 57.152344 115.660156 58.109375 C 115.660156 59.070312 114.882812 59.847656 113.925781 59.847656 Z M 113.925781 55.355469 C 112.40625 55.355469 111.175781 56.589844 111.175781 58.109375 C 111.175781 59.632812 112.40625 60.863281 113.925781 60.863281 C 115.445312 60.863281 116.675781 59.632812 116.675781 58.109375 C 116.675781 56.589844 115.445312 55.355469 113.925781 55.355469"/><path fill="#233dff" fill-opacity="1" fill-rule="nonzero" d="M 53.265625 41.351562 C 52.308594 41.351562 51.53125 40.574219 51.53125 39.617188 C 51.53125 38.65625 52.308594 37.878906 53.265625 37.878906 C 54.222656 37.878906 55 38.65625 55 39.617188 C 55 40.574219 54.222656 41.351562 53.265625 41.351562 Z M 53.265625 36.863281 C 51.746094 36.863281 50.515625 38.09375 50.515625 39.617188 C 50.515625 41.136719 51.746094 42.371094 53.265625 42.371094 C 54.785156 42.371094 56.015625 41.136719 56.015625 39.617188 C 56.015625 38.09375 54.785156 36.863281 53.265625 36.863281"/><g clip-path="url(#c1a5d303fa)"><path fill="#233dff" fill-opacity="1" fill-rule="nonzero" d="M 59.417969 86.824219 L 23.730469 86.824219 L 0 110.550781 L 0 112.492188 L 24.300781 88.199219 L 59.988281 88.199219 L 73.292969 74.878906 L 127.8125 74.878906 L 127.8125 73.507812 L 72.726562 73.507812 Z M 51.257812 40.410156 L 51.257812 39.035156 L 17.695312 39.035156 L 0 21.324219 L 0 23.265625 L 17.128906 40.410156 Z M 97.699219 46.488281 L 87.929688 56.265625 L 70.550781 56.265625 L 62.363281 48.070312 L 0 48.070312 L 0 49.445312 L 61.796875 49.445312 L 69.984375 57.640625 L 88.5 57.640625 L 98.269531 47.863281 L 156.058594 47.863281 L 156.058594 46.488281 Z M 23.824219 25.222656 L 59.515625 25.222656 L 72.820312 38.542969 L 127.8125 38.542969 L 127.8125 37.625 L 73.199219 37.625 L 59.894531 24.308594 L 24.203125 24.308594 L 0 0 L 0 1.296875 L 23.691406 25.089844 Z M 61.3125 69.0625 L 61.445312 69.195312 L 103.714844 69.195312 L 112.519531 60.382812 L 111.871094 59.734375 L 103.335938 68.277344 L 61.824219 68.277344 L 51.578125 58.027344 L 51.445312 57.890625 L 0 57.890625 L 0 58.808594 L 51.066406 58.808594 Z M 45.976562 69.992188 L 45.976562 69.074219 L 12.953125 69.074219 L 0 82.039062 L 0 83.335938 L 13.332031 69.992188 L 45.976562 69.992188"/></g><path fill="#233dff" fill-opacity="1" fill-rule="nonzero" d="M 835.855469 64.734375 L 867.152344 64.734375 L 867.152344 63.816406 L 835.855469 63.816406 L 835.855469 64.734375"/><g clip-path="url(#0aa5f42b19)"><path fill="#233dff" fill-opacity="1" fill-rule="nonzero" d="M 830.332031 49.628906 C 831.71875 49.628906 832.847656 48.5 832.847656 47.113281 C 832.847656 45.722656 831.71875 44.59375 830.332031 44.59375 C 828.941406 44.59375 827.816406 45.722656 827.816406 47.113281 C 827.816406 48.5 828.941406 49.628906 830.332031 49.628906 Z M 830.332031 43.121094 C 832.535156 43.121094 834.320312 44.90625 834.320312 47.113281 C 834.320312 49.316406 832.535156 51.105469 830.332031 51.105469 C 828.128906 51.105469 826.34375 49.316406 826.34375 47.113281 C 826.34375 44.90625 828.128906 43.121094 830.332031 43.121094"/></g><path fill="#233dff" fill-opacity="1" fill-rule="nonzero" d="M 858.867188 76.625 C 860.257812 76.625 861.382812 75.496094 861.382812 74.109375 C 861.382812 72.71875 860.257812 71.589844 858.867188 71.589844 C 857.480469 71.589844 856.355469 72.71875 856.355469 74.109375 C 856.355469 75.496094 857.480469 76.625 858.867188 76.625 Z M 858.867188 70.113281 C 861.070312 70.113281 862.859375 71.902344 862.859375 74.109375 C 862.859375 76.3125 861.070312 78.097656 858.867188 78.097656 C 856.664062 78.097656 854.878906 76.3125 854.878906 74.109375 C 854.878906 71.902344 856.664062 70.113281 858.867188 70.113281"/><path fill="#233dff" fill-opacity="1" fill-rule="nonzero" d="M 941.4375 66.726562 C 942.957031 66.726562 944.1875 67.960938 944.1875 69.480469 C 944.1875 71 942.957031 72.234375 941.4375 72.234375 C 939.917969 72.234375 938.683594 71 938.683594 69.480469 C 938.683594 67.960938 939.917969 66.726562 941.4375 66.726562"/><path fill="#233dff" fill-opacity="1" fill-rule="nonzero" d="M 833.785156 61.523438 C 835.304688 61.523438 836.535156 62.753906 836.535156 64.277344 C 836.535156 65.796875 835.304688 67.03125 833.785156 67.03125 C 832.265625 67.03125 831.035156 65.796875 831.035156 64.277344 C 831.035156 62.753906 832.265625 61.523438 833.785156 61.523438"/><path fill="#233dff" fill-opacity="1" fill-rule="nonzero" d="M 860.105469 35.128906 C 861.625 35.128906 862.859375 36.359375 862.859375 37.878906 C 862.859375 39.402344 861.625 40.632812 860.105469 40.632812 C 858.585938 40.632812 857.355469 39.402344 857.355469 37.878906 C 857.355469 36.359375 858.585938 35.128906 860.105469 35.128906"/><path fill="#233dff" fill-opacity="1" fill-rule="nonzero" d="M 875.917969 59.847656 C 876.875 59.847656 877.652344 59.070312 877.652344 58.109375 C 877.652344 57.152344 876.875 56.375 875.917969 56.375 C 874.960938 56.375 874.183594 57.152344 874.183594 58.109375 C 874.183594 59.070312 874.960938 59.847656 875.917969 59.847656 Z M 875.917969 55.355469 C 877.4375 55.355469 878.667969 56.589844 878.667969 58.109375 C 878.667969 59.632812 877.4375 60.863281 875.917969 60.863281 C 874.398438 60.863281 873.167969 59.632812 873.167969 58.109375 C 873.167969 56.589844 874.398438 55.355469 875.917969 55.355469"/><path fill="#233dff" fill-opacity="1" fill-rule="nonzero" d="M 936.578125 41.351562 C 937.535156 41.351562 938.3125 40.574219 938.3125 39.617188 C 938.3125 38.65625 937.535156 37.878906 936.578125 37.878906 C 935.621094 37.878906 934.84375 38.65625 934.84375 39.617188 C 934.84375 40.574219 935.621094 41.351562 936.578125 41.351562 Z M 936.578125 36.863281 C 938.097656 36.863281 939.328125 38.09375 939.328125 39.617188 C 939.328125 41.136719 938.097656 42.371094 936.578125 42.371094 C 935.058594 42.371094 933.828125 41.136719 933.828125 39.617188 C 933.828125 38.09375 935.058594 36.863281 936.578125 36.863281"/><g clip-path="url(#ffc315f41e)"><path fill="#233dff" fill-opacity="1" fill-rule="nonzero" d="M 930.425781 86.824219 L 966.113281 86.824219 L 989.84375 110.550781 L 989.84375 112.492188 L 965.546875 88.199219 L 929.855469 88.199219 L 916.550781 74.878906 L 862.03125 74.878906 L 862.03125 73.507812 L 917.121094 73.507812 Z M 938.589844 40.410156 L 938.589844 39.035156 L 972.148438 39.035156 L 989.84375 21.324219 L 989.84375 23.265625 L 972.71875 40.410156 Z M 892.144531 46.488281 L 901.914062 56.265625 L 919.292969 56.265625 L 927.480469 48.070312 L 989.84375 48.070312 L 989.84375 49.445312 L 928.050781 49.445312 L 919.859375 57.640625 L 901.347656 57.640625 L 891.574219 47.863281 L 833.785156 47.863281 L 833.785156 46.488281 Z M 966.019531 25.222656 L 930.332031 25.222656 L 917.023438 38.542969 L 862.03125 38.542969 L 862.03125 37.625 L 916.644531 37.625 L 929.953125 24.308594 L 965.640625 24.308594 L 989.84375 0 L 989.84375 1.296875 L 966.152344 25.089844 Z M 928.535156 69.0625 L 928.398438 69.195312 L 886.128906 69.195312 L 877.324219 60.382812 L 877.972656 59.734375 L 886.507812 68.277344 L 928.019531 68.277344 L 938.265625 58.027344 L 938.398438 57.890625 L 989.84375 57.890625 L 989.84375 58.808594 L 938.777344 58.808594 Z M 943.867188 69.992188 L 943.867188 69.074219 L 976.890625 69.074219 L 989.84375 82.039062 L 989.84375 83.335938 L 976.511719 69.992188 L 943.867188 69.992188"/></g></svg>