<svg xmlns="http://www.w3.org/2000/svg" xmlns:xlink="http://www.w3.org/1999/xlink" width="1140" zoomAndPan="magnify" viewBox="0 0 854.88 239.999995" height="320" preserveAspectRatio="xMidYMid meet" version="1.0"><defs><clipPath id="5e8773d8d0"><path d="M 0 0.015625 L 854.761719 0.015625 L 854.761719 239.980469 L 0 239.980469 Z M 0 0.015625 " clip-rule="nonzero"/></clipPath><clipPath id="533668fd52"><path d="M 278.214844 0.015625 L 576.671875 0.015625 L 576.671875 112.5 L 278.214844 112.5 Z M 278.214844 0.015625 " clip-rule="nonzero"/></clipPath><clipPath id="1c6a07d1cb"><path d="M 155 43 L 163.476562 43 L 163.476562 52 L 155 52 Z M 155 43 " clip-rule="nonzero"/></clipPath><clipPath id="67def29bc4"><path d="M 0 0.015625 L 157 0.015625 L 157 112.5 L 0 112.5 Z M 0 0.015625 " clip-rule="nonzero"/></clipPath><clipPath id="ccdf2c92e6"><path d="M 691.542969 43 L 700 43 L 700 52 L 691.542969 52 Z M 691.542969 43 " clip-rule="nonzero"/></clipPath><clipPath id="1b7b78c765"><path d="M 698 0.015625 L 854.761719 0.015625 L 854.761719 112.5 L 698 112.5 Z M 698 0.015625 " clip-rule="nonzero"/></clipPath></defs><g clip-path="url(#5e8773d8d0)"><path fill="#ffffff" d="M 0 0.015625 L 854.878906 0.015625 L 854.878906 247.480469 L 0 247.480469 Z M 0 0.015625 " fill-opacity="1" fill-rule="nonzero"/><path fill="#ffffff" d="M 0 0.015625 L 854.878906 0.015625 L 854.878906 239.984375 L 0 239.984375 Z M 0 0.015625 " fill-opacity="1" fill-rule="nonzero"/><path fill="#050a30" d="M 0 0.015625 L 854.878906 0.015625 L 854.878906 239.984375 L 0 239.984375 Z M 0 0.015625 " fill-opacity="1" fill-rule="nonzero"/></g><g clip-path="url(#533668fd52)"><path fill="#233dff" d="M 348.390625 5.101562 L 350.21875 8.273438 L 330.894531 8.273438 L 329.0625 5.101562 L 325.539062 5.101562 L 325.539062 5.601562 L 323.804688 5.601562 L 323.804688 3.792969 L 325.539062 3.792969 L 325.539062 4.296875 L 348.851562 4.296875 L 365.769531 33.648438 L 373.65625 33.648438 L 355.148438 1.53125 L 333.554688 1.53125 L 333.554688 2.035156 L 331.816406 2.035156 L 331.816406 0.226562 L 333.554688 0.226562 L 333.554688 0.730469 L 355.613281 0.730469 L 374.578125 33.640625 L 390.773438 33.640625 L 390.773438 34.445312 L 365.304688 34.445312 Z M 327.082031 29.867188 L 325.351562 29.867188 L 325.953125 30.910156 L 325.351562 31.953125 L 327.082031 31.953125 L 327.683594 30.910156 Z M 330.570312 29.867188 L 328.839844 29.867188 L 329.441406 30.910156 L 328.839844 31.953125 L 330.570312 31.953125 L 331.171875 30.910156 Z M 328.539062 29.515625 L 330.769531 29.515625 L 331.574219 30.910156 L 330.769531 32.304688 L 328.230469 32.304688 L 329.03125 30.910156 L 328.230469 29.515625 Z M 334.054688 29.867188 L 332.324219 29.867188 L 332.925781 30.910156 L 332.324219 31.953125 L 334.054688 31.953125 L 334.65625 30.910156 Z M 332.023438 29.515625 L 334.257812 29.515625 L 335.058594 30.910156 L 334.257812 32.304688 L 331.714844 32.304688 L 332.519531 30.910156 L 331.714844 29.515625 Z M 325.050781 29.515625 L 327.285156 29.515625 L 328.085938 30.910156 L 327.285156 32.304688 L 324.742188 32.304688 L 325.546875 30.910156 L 324.742188 29.515625 Z M 316.492188 29.867188 L 314.761719 29.867188 L 315.363281 30.910156 L 314.761719 31.953125 L 316.492188 31.953125 L 317.09375 30.910156 Z M 319.972656 29.867188 L 318.242188 29.867188 L 318.84375 30.910156 L 318.242188 31.953125 L 319.972656 31.953125 L 320.574219 30.910156 Z M 317.941406 29.515625 L 320.171875 29.515625 L 320.976562 30.910156 L 320.171875 32.304688 L 317.632812 32.304688 L 318.4375 30.910156 L 317.632812 29.515625 Z M 323.457031 29.867188 L 321.726562 29.867188 L 322.332031 30.910156 L 321.726562 31.953125 L 323.457031 31.953125 L 324.0625 30.910156 Z M 321.425781 29.515625 L 323.660156 29.515625 L 324.460938 30.910156 L 323.660156 32.304688 L 321.121094 32.304688 L 321.921875 30.910156 L 321.121094 29.515625 Z M 314.453125 29.515625 L 316.6875 29.515625 L 317.488281 30.910156 L 316.6875 32.304688 L 314.148438 32.304688 L 314.949219 30.910156 L 314.148438 29.515625 Z M 506.496094 5.101562 L 504.664062 8.273438 L 523.988281 8.273438 L 525.820312 5.101562 L 529.34375 5.101562 L 529.34375 5.601562 L 531.082031 5.601562 L 531.082031 3.792969 L 529.34375 3.792969 L 529.34375 4.296875 L 506.03125 4.296875 L 489.117188 33.648438 L 481.226562 33.648438 L 499.738281 1.53125 L 521.332031 1.53125 L 521.332031 2.035156 L 523.066406 2.035156 L 523.066406 0.226562 L 521.332031 0.226562 L 521.332031 0.730469 L 499.273438 0.730469 L 480.300781 33.640625 L 464.105469 33.640625 L 464.105469 34.445312 L 489.574219 34.445312 Z M 527.800781 29.867188 L 529.53125 29.867188 L 528.929688 30.910156 L 529.53125 31.953125 L 527.800781 31.953125 L 527.199219 30.910156 Z M 524.316406 29.867188 L 526.046875 29.867188 L 525.445312 30.910156 L 526.046875 31.953125 L 524.316406 31.953125 L 523.714844 30.910156 Z M 526.347656 29.515625 L 524.117188 29.515625 L 523.3125 30.910156 L 524.117188 32.304688 L 526.65625 32.304688 L 525.851562 30.910156 L 526.65625 29.515625 Z M 520.828125 29.867188 L 522.558594 29.867188 L 521.957031 30.910156 L 522.558594 31.953125 L 520.828125 31.953125 L 520.226562 30.910156 Z M 522.863281 29.515625 L 520.628906 29.515625 L 519.828125 30.910156 L 520.628906 32.304688 L 523.167969 32.304688 L 522.367188 30.910156 L 523.167969 29.515625 Z M 529.832031 29.515625 L 527.601562 29.515625 L 526.800781 30.910156 L 527.601562 32.304688 L 530.140625 32.304688 L 529.339844 30.910156 L 530.140625 29.515625 Z M 538.390625 29.867188 L 540.125 29.867188 L 539.519531 30.910156 L 540.125 31.953125 L 538.390625 31.953125 L 537.789062 30.910156 Z M 534.914062 29.867188 L 536.644531 29.867188 L 536.042969 30.910156 L 536.644531 31.953125 L 534.914062 31.953125 L 534.3125 30.910156 Z M 536.945312 29.515625 L 534.710938 29.515625 L 533.910156 30.910156 L 534.710938 32.304688 L 537.25 32.304688 L 536.449219 30.910156 L 537.25 29.515625 Z M 531.425781 29.867188 L 533.15625 29.867188 L 532.554688 30.910156 L 533.15625 31.953125 L 531.425781 31.953125 L 530.824219 30.910156 Z M 533.457031 29.515625 L 531.226562 29.515625 L 530.421875 30.910156 L 531.226562 32.304688 L 533.765625 32.304688 L 532.960938 30.910156 L 533.765625 29.515625 Z M 540.429688 29.515625 L 538.199219 29.515625 L 537.394531 30.910156 L 538.199219 32.304688 L 540.738281 32.304688 L 539.933594 30.910156 L 540.738281 29.515625 Z M 494.722656 46.007812 L 464.117188 46.007812 L 464.117188 45.203125 L 494.488281 45.203125 L 512.257812 14.371094 L 548.011719 14.371094 L 548.011719 13.867188 L 549.746094 13.867188 L 549.746094 15.675781 L 548.011719 15.675781 L 548.011719 15.175781 L 512.722656 15.175781 L 512.125 16.203125 L 548.011719 16.203125 L 548.011719 15.703125 L 549.746094 15.703125 L 549.746094 17.511719 L 548.011719 17.511719 L 548.011719 17.007812 L 511.664062 17.007812 L 494.945312 46.007812 Z M 348.390625 107.480469 L 350.21875 104.308594 L 330.894531 104.308594 L 329.0625 107.480469 L 325.539062 107.480469 L 325.539062 106.976562 L 323.804688 106.976562 L 323.804688 108.785156 L 325.539062 108.785156 L 325.539062 108.285156 L 348.851562 108.285156 L 365.769531 78.933594 L 373.65625 78.933594 L 355.148438 111.046875 L 333.554688 111.046875 L 333.554688 110.546875 L 331.816406 110.546875 L 331.816406 112.355469 L 333.554688 112.355469 L 333.554688 111.851562 L 355.613281 111.851562 L 374.578125 78.941406 L 390.773438 78.941406 L 390.773438 78.136719 L 365.304688 78.136719 Z M 340.355469 89.421875 L 341.191406 87.976562 L 332.394531 87.976562 L 331.558594 89.421875 L 316.003906 89.421875 L 316.003906 88.921875 L 314.265625 88.921875 L 314.265625 90.730469 L 316.003906 90.730469 L 316.003906 90.226562 L 340.816406 90.226562 L 359.914062 57.09375 L 358.082031 60.265625 L 377.40625 60.265625 L 379.238281 57.09375 L 390.582031 57.09375 L 390.582031 55.488281 L 379.238281 55.488281 L 377.40625 52.316406 L 358.082031 52.316406 L 359.914062 55.488281 L 340.8125 22.355469 L 316.003906 22.355469 L 316.003906 21.851562 L 314.265625 21.851562 L 314.265625 23.660156 L 316.003906 23.660156 L 316.003906 23.15625 L 331.558594 23.15625 L 332.394531 24.601562 L 341.191406 24.601562 L 340.355469 23.15625 L 358.992188 55.488281 L 349.023438 55.488281 L 336.652344 34.023438 L 279.949219 34.023438 L 279.949219 33.523438 L 278.214844 33.523438 L 278.214844 35.332031 L 279.949219 35.332031 L 279.949219 34.828125 L 336.1875 34.828125 L 346.082031 51.996094 L 332.675781 51.996094 L 325.285156 39.160156 L 294.058594 39.160156 L 294.058594 38.660156 L 292.320312 38.660156 L 292.320312 40.46875 L 294.058594 40.46875 L 294.058594 39.964844 L 324.824219 39.964844 L 332.21875 52.796875 L 346.550781 52.796875 L 348.5625 56.289062 L 346.550781 59.78125 L 332.210938 59.78125 L 324.820312 72.613281 L 294.050781 72.613281 L 294.050781 72.113281 L 292.316406 72.113281 L 292.316406 73.921875 L 294.050781 73.921875 L 294.050781 73.417969 L 325.277344 73.417969 L 332.667969 60.585938 L 346.074219 60.585938 L 336.179688 77.753906 L 279.949219 77.753906 L 279.949219 77.25 L 278.214844 77.25 L 278.214844 79.058594 L 279.949219 79.058594 L 279.949219 78.554688 L 336.652344 78.554688 L 349.023438 57.09375 L 358.992188 57.09375 Z M 327.082031 82.714844 L 325.351562 82.714844 L 325.953125 81.671875 L 325.351562 80.628906 L 327.082031 80.628906 L 327.683594 81.671875 Z M 330.570312 82.714844 L 328.839844 82.714844 L 329.441406 81.671875 L 328.839844 80.628906 L 330.570312 80.628906 L 331.171875 81.671875 Z M 328.539062 83.066406 L 330.769531 83.066406 L 331.574219 81.671875 L 330.769531 80.277344 L 328.230469 80.277344 L 329.03125 81.671875 L 328.230469 83.066406 Z M 334.054688 82.714844 L 332.324219 82.714844 L 332.925781 81.671875 L 332.324219 80.628906 L 334.054688 80.628906 L 334.65625 81.671875 Z M 332.023438 83.066406 L 334.257812 83.066406 L 335.058594 81.671875 L 334.257812 80.277344 L 331.714844 80.277344 L 332.519531 81.671875 L 331.714844 83.066406 Z M 325.050781 83.066406 L 327.285156 83.066406 L 328.085938 81.671875 L 327.285156 80.277344 L 324.742188 80.277344 L 325.546875 81.671875 L 324.742188 83.066406 Z M 316.492188 82.714844 L 314.761719 82.714844 L 315.363281 81.671875 L 314.761719 80.628906 L 316.492188 80.628906 L 317.09375 81.671875 Z M 319.972656 82.714844 L 318.242188 82.714844 L 318.84375 81.671875 L 318.242188 80.628906 L 319.972656 80.628906 L 320.574219 81.671875 Z M 317.941406 83.066406 L 320.171875 83.066406 L 320.976562 81.671875 L 320.171875 80.277344 L 317.632812 80.277344 L 318.4375 81.671875 L 317.632812 83.066406 Z M 323.457031 82.714844 L 321.726562 82.714844 L 322.332031 81.671875 L 321.726562 80.628906 L 323.457031 80.628906 L 324.0625 81.671875 Z M 321.425781 83.066406 L 323.660156 83.066406 L 324.460938 81.671875 L 323.660156 80.277344 L 321.121094 80.277344 L 321.921875 81.671875 L 321.121094 83.066406 Z M 314.453125 83.066406 L 316.6875 83.066406 L 317.488281 81.671875 L 316.6875 80.277344 L 314.148438 80.277344 L 314.949219 81.671875 L 314.148438 83.066406 Z M 506.496094 107.480469 L 504.664062 104.308594 L 523.988281 104.308594 L 525.820312 107.480469 L 529.34375 107.480469 L 529.34375 106.976562 L 531.082031 106.976562 L 531.082031 108.785156 L 529.34375 108.785156 L 529.34375 108.285156 L 506.03125 108.285156 L 489.117188 78.933594 L 481.226562 78.933594 L 499.738281 111.046875 L 521.332031 111.046875 L 521.332031 110.546875 L 523.066406 110.546875 L 523.066406 112.355469 L 521.332031 112.355469 L 521.332031 111.851562 L 499.273438 111.851562 L 480.300781 78.941406 L 464.105469 78.941406 L 464.105469 78.136719 L 489.574219 78.136719 Z M 514.527344 89.421875 L 513.695312 87.976562 L 522.492188 87.976562 L 523.324219 89.421875 L 538.882812 89.421875 L 538.882812 88.921875 L 540.617188 88.921875 L 540.617188 90.730469 L 538.882812 90.730469 L 538.882812 90.226562 L 514.070312 90.226562 L 494.972656 57.09375 L 496.804688 60.265625 L 477.476562 60.265625 L 475.648438 57.09375 L 464.304688 57.09375 L 464.304688 55.488281 L 475.648438 55.488281 L 477.476562 52.316406 L 496.800781 52.316406 L 494.972656 55.488281 L 514.070312 22.355469 L 538.882812 22.355469 L 538.882812 21.851562 L 540.617188 21.851562 L 540.617188 23.660156 L 538.882812 23.660156 L 538.882812 23.15625 L 523.324219 23.15625 L 522.492188 24.601562 L 513.695312 24.601562 L 514.527344 23.15625 L 495.894531 55.488281 L 505.863281 55.488281 L 518.234375 34.023438 L 574.933594 34.023438 L 574.933594 33.523438 L 576.671875 33.523438 L 576.671875 35.332031 L 574.933594 35.332031 L 574.933594 34.828125 L 518.699219 34.828125 L 508.804688 51.996094 L 522.210938 51.996094 L 529.601562 39.160156 L 560.828125 39.160156 L 560.828125 38.660156 L 562.5625 38.660156 L 562.5625 40.46875 L 560.828125 40.46875 L 560.828125 39.964844 L 530.058594 39.964844 L 522.667969 52.796875 L 508.332031 52.796875 L 506.320312 56.289062 L 508.332031 59.78125 L 522.667969 59.78125 L 530.058594 72.613281 L 560.828125 72.613281 L 560.828125 72.113281 L 562.5625 72.113281 L 562.5625 73.921875 L 560.828125 73.921875 L 560.828125 73.417969 L 529.601562 73.417969 L 522.210938 60.585938 L 508.804688 60.585938 L 518.699219 77.753906 L 574.933594 77.753906 L 574.933594 77.25 L 576.671875 77.25 L 576.671875 79.058594 L 574.933594 79.058594 L 574.933594 78.554688 L 518.234375 78.554688 L 505.863281 57.09375 L 495.894531 57.09375 Z M 527.800781 82.714844 L 529.53125 82.714844 L 528.929688 81.671875 L 529.53125 80.628906 L 527.800781 80.628906 L 527.199219 81.671875 Z M 524.316406 82.714844 L 526.046875 82.714844 L 525.445312 81.671875 L 526.046875 80.628906 L 524.316406 80.628906 L 523.714844 81.671875 Z M 526.347656 83.066406 L 524.117188 83.066406 L 523.3125 81.671875 L 524.117188 80.277344 L 526.65625 80.277344 L 525.851562 81.671875 L 526.65625 83.066406 Z M 520.828125 82.714844 L 522.558594 82.714844 L 521.957031 81.671875 L 522.558594 80.628906 L 520.828125 80.628906 L 520.226562 81.671875 Z M 522.863281 83.066406 L 520.628906 83.066406 L 519.828125 81.671875 L 520.628906 80.277344 L 523.167969 80.277344 L 522.367188 81.671875 L 523.167969 83.066406 Z M 529.832031 83.066406 L 527.601562 83.066406 L 526.800781 81.671875 L 527.601562 80.277344 L 530.140625 80.277344 L 529.339844 81.671875 L 530.140625 83.066406 Z M 538.390625 82.714844 L 540.125 82.714844 L 539.519531 81.671875 L 540.125 80.628906 L 538.390625 80.628906 L 537.789062 81.671875 Z M 534.914062 82.714844 L 536.644531 82.714844 L 536.042969 81.671875 L 536.644531 80.628906 L 534.914062 80.628906 L 534.3125 81.671875 Z M 536.945312 83.066406 L 534.710938 83.066406 L 533.910156 81.671875 L 534.710938 80.277344 L 537.25 80.277344 L 536.449219 81.671875 L 537.25 83.066406 Z M 531.425781 82.714844 L 533.15625 82.714844 L 532.554688 81.671875 L 533.15625 80.628906 L 531.425781 80.628906 L 530.824219 81.671875 Z M 533.457031 83.066406 L 531.226562 83.066406 L 530.421875 81.671875 L 531.226562 80.277344 L 533.765625 80.277344 L 532.960938 81.671875 L 533.765625 83.066406 Z M 540.429688 83.066406 L 538.199219 83.066406 L 537.394531 81.671875 L 538.199219 80.277344 L 540.738281 80.277344 L 539.933594 81.671875 L 540.738281 83.066406 Z M 494.722656 66.574219 L 464.117188 66.574219 L 464.117188 67.375 L 494.488281 67.375 L 512.257812 98.210938 L 548.011719 98.210938 L 548.011719 98.710938 L 549.746094 98.710938 L 549.746094 96.902344 L 548.011719 96.902344 L 548.011719 97.40625 L 512.722656 97.40625 L 512.125 96.375 L 548.011719 96.375 L 548.011719 96.878906 L 549.746094 96.878906 L 549.746094 95.070312 L 548.011719 95.070312 L 548.011719 95.570312 L 511.664062 95.570312 L 494.945312 66.574219 Z M 360.164062 66.574219 L 390.769531 66.574219 L 390.769531 67.375 L 360.394531 67.375 L 342.625 98.210938 L 306.867188 98.210938 L 306.867188 98.710938 L 305.132812 98.710938 L 305.132812 96.902344 L 306.867188 96.902344 L 306.867188 97.40625 L 342.15625 97.40625 L 342.75 96.375 L 306.867188 96.375 L 306.867188 96.878906 L 305.132812 96.878906 L 305.132812 95.070312 L 306.867188 95.070312 L 306.867188 95.570312 L 343.214844 95.570312 L 359.933594 66.574219 Z M 435.21875 24.660156 C 434.371094 24.453125 433.511719 24.277344 432.652344 24.136719 L 432.257812 26.625 C 433.054688 26.757812 433.839844 26.914062 434.621094 27.109375 Z M 440.171875 26.316406 C 439.367188 25.972656 438.554688 25.664062 437.726562 25.386719 L 436.933594 27.78125 C 437.699219 28.039062 438.453125 28.320312 439.191406 28.640625 Z M 444.804688 28.753906 C 444.070312 28.285156 443.304688 27.84375 442.535156 27.441406 L 441.375 29.675781 C 442.082031 30.046875 442.785156 30.457031 443.460938 30.882812 Z M 448.980469 31.894531 C 448.328125 31.316406 447.652344 30.765625 446.957031 30.242188 L 445.449219 32.257812 C 446.097656 32.75 446.71875 33.257812 447.324219 33.792969 Z M 452.605469 35.667969 C 452.054688 34.992188 451.476562 34.34375 450.867188 33.710938 L 449.054688 35.460938 C 449.613281 36.046875 450.148438 36.648438 450.660156 37.269531 Z M 455.582031 39.972656 C 455.144531 39.210938 454.679688 38.484375 454.183594 37.761719 L 452.117188 39.199219 C 452.574219 39.867188 453.007812 40.542969 453.414062 41.242188 Z M 457.832031 44.695312 C 457.519531 43.878906 457.183594 43.074219 456.804688 42.289062 L 454.542969 43.382812 C 454.886719 44.113281 455.199219 44.851562 455.488281 45.605469 Z M 459.292969 49.734375 C 459.125 48.878906 458.90625 48.023438 458.667969 47.1875 L 456.253906 47.894531 C 456.472656 48.664062 456.675781 49.449219 456.832031 50.242188 Z M 459.921875 54.925781 C 459.882812 54.054688 459.816406 53.179688 459.707031 52.316406 L 457.214844 52.636719 C 457.3125 53.433594 457.375 54.242188 457.40625 55.039062 Z M 459.726562 60.160156 C 459.828125 59.285156 459.898438 58.425781 459.929688 57.554688 L 457.414062 57.457031 C 457.382812 58.269531 457.320312 59.066406 457.226562 59.875 Z M 458.691406 65.296875 C 458.929688 64.457031 459.136719 63.609375 459.3125 62.753906 L 456.84375 62.261719 C 456.6875 63.054688 456.492188 63.832031 456.273438 64.613281 Z M 456.847656 70.195312 C 457.21875 69.40625 457.5625 68.601562 457.871094 67.785156 L 455.515625 66.90625 C 455.230469 67.660156 454.910156 68.398438 454.574219 69.128906 Z M 454.242188 74.738281 C 454.738281 74.015625 455.199219 73.28125 455.632812 72.519531 L 453.449219 71.265625 C 453.042969 71.960938 452.617188 72.644531 452.160156 73.3125 Z M 450.941406 78.796875 C 451.546875 78.167969 452.128906 77.507812 452.671875 76.828125 L 450.71875 75.246094 C 450.210938 75.867188 449.675781 76.476562 449.125 77.054688 Z M 447.035156 82.28125 C 447.734375 81.761719 448.417969 81.195312 449.0625 80.617188 L 447.382812 78.738281 C 446.792969 79.273438 446.160156 79.792969 445.519531 80.269531 Z M 442.636719 85.089844 C 443.40625 84.679688 444.160156 84.242188 444.890625 83.769531 L 443.53125 81.648438 C 442.847656 82.082031 442.160156 82.480469 441.445312 82.867188 Z M 437.824219 87.160156 C 438.652344 86.886719 439.46875 86.570312 440.269531 86.226562 L 439.273438 83.90625 C 438.535156 84.222656 437.78125 84.515625 437.015625 84.773438 Z M 432.746094 88.425781 C 433.605469 88.285156 434.464844 88.105469 435.3125 87.894531 L 434.695312 85.453125 C 433.917969 85.648438 433.128906 85.8125 432.332031 85.941406 Z M 427.542969 88.855469 C 428.414062 88.855469 429.292969 88.820312 430.15625 88.746094 L 429.9375 86.230469 L 429.945312 86.230469 C 429.140625 86.292969 428.339844 86.332031 427.53125 86.332031 Z M 422.332031 88.457031 C 423.199219 88.585938 424.050781 88.6875 424.921875 88.757812 L 425.109375 86.246094 C 424.300781 86.183594 423.511719 86.085938 422.707031 85.960938 Z M 417.253906 87.222656 C 418.082031 87.496094 418.921875 87.738281 419.769531 87.945312 L 420.351562 85.496094 C 419.566406 85.308594 418.796875 85.082031 418.03125 84.832031 Z M 412.433594 85.183594 C 413.203125 85.589844 414 85.960938 414.800781 86.300781 L 415.769531 83.976562 C 415.027344 83.65625 414.304688 83.324219 413.59375 82.945312 Z M 408.011719 82.402344 C 408.714844 82.921875 409.429688 83.417969 410.167969 83.882812 L 411.496094 81.746094 C 410.8125 81.320312 410.15625 80.863281 409.503906 80.378906 Z M 404.085938 78.941406 C 404.695312 79.566406 405.320312 80.164062 405.972656 80.75 L 407.636719 78.851562 C 407.027344 78.316406 406.449219 77.757812 405.886719 77.179688 Z M 400.757812 74.902344 C 401.257812 75.617188 401.777344 76.308594 402.335938 76.984375 L 404.273438 75.382812 C 403.761719 74.757812 403.277344 74.121094 402.8125 73.457031 Z M 398.125 70.378906 C 398.5 71.164062 398.914062 71.941406 399.351562 72.695312 L 401.515625 71.414062 C 401.113281 70.722656 400.730469 70.007812 400.386719 69.285156 Z M 396.25 65.492188 C 396.492188 66.332031 396.773438 67.15625 397.089844 67.972656 L 399.433594 67.0625 C 399.144531 66.308594 398.886719 65.546875 398.664062 64.769531 Z M 395.183594 60.359375 C 395.289062 61.226562 395.433594 62.09375 395.609375 62.949219 L 398.074219 62.425781 C 397.910156 61.640625 397.777344 60.835938 397.679688 60.039062 Z M 394.949219 55.132812 C 394.917969 56.007812 394.925781 56.875 394.964844 57.746094 L 397.476562 57.632812 C 397.445312 56.824219 397.441406 56.019531 397.464844 55.210938 Z M 395.550781 49.925781 C 395.402344 50.808594 395.25 51.628906 395.144531 52.515625 L 397.648438 52.796875 C 397.742188 51.980469 397.878906 51.222656 398.015625 50.410156 Z M 396.980469 44.890625 C 396.679688 45.695312 396.394531 46.554688 396.167969 47.390625 L 398.59375 48.0625 L 398.59375 48.070312 C 398.8125 47.296875 399.0625 46.523438 399.347656 45.769531 Z M 399.203125 40.148438 C 398.769531 40.90625 398.367188 41.679688 397.996094 42.472656 L 400.273438 43.539062 C 400.617188 42.8125 400.988281 42.09375 401.390625 41.390625 Z M 402.15625 35.828125 C 401.609375 36.5 401.078125 37.214844 400.585938 37.929688 L 402.667969 39.34375 C 403.128906 38.679688 403.605469 38.03125 404.113281 37.410156 Z M 405.753906 32.027344 C 405.109375 32.605469 404.476562 33.21875 403.875 33.855469 L 405.703125 35.582031 C 406.253906 34.996094 406.839844 34.433594 407.433594 33.898438 Z M 409.910156 28.859375 C 409.175781 29.332031 408.460938 29.835938 407.773438 30.363281 L 409.304688 32.359375 C 409.941406 31.871094 410.605469 31.410156 411.285156 30.972656 Z M 414.527344 26.398438 C 413.722656 26.746094 412.941406 27.128906 412.167969 27.535156 L 413.355469 29.757812 C 414.070312 29.382812 414.789062 29.03125 415.53125 28.710938 Z M 419.472656 24.710938 C 418.625 24.921875 417.785156 25.167969 416.964844 25.449219 L 417.785156 27.832031 C 418.546875 27.566406 419.324219 27.347656 420.101562 27.144531 Z M 424.632812 23.84375 C 423.769531 23.917969 422.898438 24.023438 422.039062 24.167969 L 422.464844 26.648438 C 423.253906 26.519531 424.058594 26.417969 424.859375 26.347656 Z M 441.605469 24.929688 C 439.667969 24.050781 437.675781 23.371094 435.617188 22.855469 L 435.46875 23.464844 C 437.492188 23.96875 439.449219 24.632812 441.351562 25.5 Z M 448.640625 29.214844 C 446.960938 27.898438 445.207031 26.757812 443.320312 25.769531 L 443.03125 26.328125 C 444.886719 27.304688 446.605469 28.421875 448.257812 29.714844 Z M 454.460938 35.042969 C 453.136719 33.363281 451.707031 31.84375 450.101562 30.429688 L 449.6875 30.902344 C 451.261719 32.289062 452.667969 33.777344 453.964844 35.429688 Z M 458.742188 42.082031 C 457.859375 40.140625 456.816406 38.320312 455.601562 36.566406 L 455.085938 36.933594 C 456.285156 38.652344 457.300781 40.4375 458.171875 42.347656 Z M 461.214844 49.953125 C 460.824219 47.875 460.246094 45.8125 459.476562 43.847656 L 458.894531 44.078125 C 459.652344 46.007812 460.214844 48.042969 460.59375 50.070312 Z M 461.746094 58.179688 C 461.859375 56.070312 461.785156 53.933594 461.515625 51.835938 L 460.894531 51.917969 C 461.164062 53.980469 461.230469 56.078125 461.125 58.148438 Z M 460.316406 66.300781 C 460.929688 64.253906 461.351562 62.214844 461.582031 60.085938 L 460.957031 60.015625 C 460.722656 62.101562 460.3125 64.109375 459.707031 66.121094 Z M 456.992188 73.847656 C 458.066406 72.042969 459 70.082031 459.714844 68.109375 L 459.125 67.898438 C 458.410156 69.851562 457.515625 71.742188 456.453125 73.527344 Z M 451.976562 80.378906 C 453.457031 78.863281 454.800781 77.210938 455.976562 75.453125 L 455.457031 75.101562 C 454.304688 76.824219 452.980469 78.449219 451.527344 79.933594 Z M 445.550781 85.539062 C 447.34375 84.429688 449.050781 83.128906 450.605469 81.710938 L 450.179688 81.246094 C 448.648438 82.644531 446.980469 83.914062 445.21875 85.007812 Z M 438.089844 89.019531 C 440.109375 88.355469 442.039062 87.527344 443.90625 86.503906 L 443.605469 85.949219 C 441.777344 86.953125 439.875 87.769531 437.894531 88.425781 Z M 430.011719 90.609375 C 432.09375 90.460938 434.246094 90.101562 436.265625 89.5625 L 436.101562 88.953125 C 434.121094 89.484375 432.011719 89.832031 429.96875 89.980469 Z M 421.792969 90.238281 C 423.914062 90.585938 425.96875 90.730469 428.113281 90.699219 L 428.09375 90.070312 C 426.1875 90.175781 423.773438 89.925781 421.886719 89.617188 Z M 413.894531 87.921875 C 415.835938 88.75 417.863281 89.421875 419.925781 89.875 L 420.054688 89.257812 C 418.011719 88.800781 416.0625 88.167969 414.136719 87.34375 Z M 406.777344 83.78125 C 408.480469 85.0625 410.257812 86.167969 412.164062 87.125 L 412.445312 86.558594 C 410.570312 85.617188 408.828125 84.542969 407.152344 83.28125 Z M 400.839844 78.066406 C 402.1875 79.710938 403.660156 81.21875 405.285156 82.589844 L 405.683594 82.105469 C 404.105469 80.78125 402.632812 79.261719 401.320312 77.664062 Z M 396.425781 71.105469 C 397.339844 73.023438 398.425781 74.84375 399.671875 76.558594 L 400.179688 76.183594 C 398.957031 74.503906 397.886719 72.703125 396.996094 70.832031 Z M 393.804688 63.289062 C 394.234375 65.359375 394.851562 67.402344 395.660156 69.359375 L 396.242188 69.117188 C 395.453125 67.1875 394.84375 65.195312 394.425781 63.15625 Z M 393.113281 55.070312 C 393.039062 57.183594 393.15625 59.316406 393.472656 61.410156 L 394.089844 61.316406 C 393.785156 59.253906 393.671875 57.167969 393.742188 55.089844 Z M 394.378906 46.925781 C 393.804688 48.984375 393.425781 51.039062 393.234375 53.167969 L 393.859375 53.226562 C 394.054688 51.132812 394.425781 49.117188 394.988281 47.09375 Z M 397.554688 39.320312 C 396.511719 41.152344 395.628906 43.113281 394.945312 45.109375 L 395.539062 45.3125 C 396.210938 43.351562 397.078125 41.4375 398.097656 39.632812 Z M 402.445312 32.6875 C 400.996094 34.210938 399.679688 35.921875 398.539062 37.6875 L 399.0625 38.023438 C 400.1875 36.285156 401.476562 34.613281 402.902344 33.121094 Z M 408.769531 27.402344 C 407 28.546875 405.320312 29.886719 403.792969 31.335938 L 404.222656 31.792969 C 405.722656 30.367188 407.371094 29.054688 409.109375 27.9375 Z M 416.15625 23.78125 C 414.148438 24.484375 412.238281 25.355469 410.386719 26.410156 L 410.703125 26.957031 C 412.511719 25.921875 414.394531 25.0625 416.363281 24.375 Z M 424.207031 22.027344 C 422.113281 22.222656 420 22.617188 417.976562 23.203125 L 418.148438 23.804688 C 420.132812 23.234375 422.214844 22.84375 424.261719 22.65625 Z M 433.757812 22.460938 C 431.65625 22.070312 429.582031 21.890625 427.441406 21.882812 L 427.441406 22.511719 C 429.542969 22.515625 431.574219 22.699219 433.636719 23.082031 L 433.757812 22.460938 L 427.441406 21.875 C 426.996094 21.875 426.550781 21.882812 426.101562 21.902344 L 426.125 22.53125 C 426.558594 22.503906 427.003906 22.503906 427.4375 22.503906 Z M 401.214844 61.925781 C 401.019531 61 400.871094 60.070312 400.769531 59.125 L 400.769531 59.117188 C 400.667969 58.160156 400.617188 57.214844 400.617188 56.289062 C 400.617188 48.867188 403.621094 42.152344 408.476562 37.289062 C 413.328125 32.429688 420.039062 29.421875 427.441406 29.421875 C 428.039062 29.421875 428.652344 29.445312 429.292969 29.488281 C 429.902344 29.535156 430.515625 29.597656 431.136719 29.683594 L 430.789062 32.171875 C 430.246094 32.097656 429.6875 32.039062 429.121094 31.996094 C 428.582031 31.957031 428.027344 31.9375 427.441406 31.9375 C 420.726562 31.9375 414.652344 34.664062 410.25 39.074219 C 405.847656 43.484375 403.128906 49.570312 403.128906 56.296875 C 403.128906 57.175781 403.171875 58.03125 403.257812 58.867188 C 403.347656 59.714844 403.484375 60.5625 403.667969 61.410156 Z M 430.328125 36.664062 C 430.007812 36.617188 429.695312 36.582031 429.367188 36.542969 L 429.28125 37.484375 C 429.585938 37.515625 429.886719 37.554688 430.195312 37.597656 Z M 432.226562 37.039062 C 431.914062 36.964844 431.601562 36.886719 431.28125 36.832031 L 431.105469 37.761719 C 431.40625 37.816406 431.707031 37.886719 432 37.960938 Z M 434.078125 37.597656 C 433.773438 37.492188 433.46875 37.390625 433.160156 37.296875 L 432.890625 38.199219 C 433.1875 38.289062 433.472656 38.382812 433.761719 38.488281 Z M 435.863281 38.332031 C 435.570312 38.195312 435.273438 38.0625 434.980469 37.945312 L 434.621094 38.816406 C 434.902344 38.9375 435.1875 39.054688 435.460938 39.1875 Z M 437.570312 39.242188 C 437.292969 39.082031 437.011719 38.921875 436.730469 38.765625 L 436.289062 39.601562 C 436.558594 39.746094 436.828125 39.898438 437.09375 40.054688 Z M 439.175781 40.3125 C 438.917969 40.121094 438.652344 39.933594 438.382812 39.757812 L 437.863281 40.550781 C 438.121094 40.71875 438.371094 40.894531 438.617188 41.078125 Z M 440.671875 41.535156 C 440.433594 41.316406 440.183594 41.109375 439.9375 40.90625 L 439.347656 41.644531 C 439.585938 41.835938 439.820312 42.03125 440.046875 42.238281 Z M 442.046875 42.898438 C 441.828125 42.660156 441.605469 42.429688 441.375 42.203125 L 440.710938 42.875 C 440.929688 43.09375 441.144531 43.3125 441.351562 43.539062 Z M 443.28125 44.382812 C 443.085938 44.125 442.886719 43.871094 442.679688 43.621094 L 441.957031 44.222656 C 442.152344 44.464844 442.347656 44.703125 442.527344 44.945312 Z M 444.367188 45.984375 C 444.195312 45.707031 444.027344 45.4375 443.84375 45.167969 L 443.066406 45.699219 C 443.242188 45.953125 443.40625 46.214844 443.5625 46.480469 Z M 445.289062 47.683594 C 445.148438 47.394531 445 47.101562 444.847656 46.824219 L 444.019531 47.285156 C 444.171875 47.554688 444.308594 47.828125 444.441406 48.105469 Z M 446.039062 49.46875 C 445.925781 49.167969 445.8125 48.859375 445.683594 48.570312 L 444.816406 48.941406 C 444.9375 49.222656 445.050781 49.511719 445.15625 49.800781 Z M 446.617188 51.316406 C 446.535156 51.007812 446.453125 50.6875 446.351562 50.386719 L 445.457031 50.667969 C 445.542969 50.964844 445.632812 51.257812 445.707031 51.554688 Z M 447.003906 53.210938 C 446.957031 52.890625 446.898438 52.570312 446.835938 52.257812 L 445.914062 52.453125 C 445.976562 52.753906 446.035156 53.054688 446.078125 53.355469 Z M 447.210938 55.132812 C 447.195312 54.8125 447.167969 54.492188 447.128906 54.171875 L 446.191406 54.273438 C 446.222656 54.582031 446.246094 54.890625 446.265625 55.199219 Z M 447.230469 57.070312 C 447.242188 56.75 447.25 56.421875 447.242188 56.101562 L 446.304688 56.113281 C 446.308594 56.421875 446.304688 56.730469 446.289062 57.039062 Z M 447.0625 58.996094 C 447.105469 58.675781 447.144531 58.355469 447.167969 58.035156 L 446.226562 57.960938 C 446.203125 58.269531 446.164062 58.570312 446.128906 58.878906 Z M 446.703125 60.902344 C 446.78125 60.585938 446.847656 60.273438 446.90625 59.953125 L 445.976562 59.78125 C 445.921875 60.085938 445.859375 60.386719 445.789062 60.679688 Z M 446.164062 62.761719 C 446.273438 62.453125 446.359375 62.152344 446.460938 61.835938 L 445.550781 61.578125 C 445.460938 61.875 445.367188 62.167969 445.269531 62.457031 Z M 445.449219 64.554688 C 445.582031 64.261719 445.714844 63.964844 445.832031 63.664062 L 444.953125 63.320312 C 444.84375 63.601562 444.714844 63.882812 444.589844 64.167969 Z M 444.554688 66.277344 C 444.714844 66 444.875 65.710938 445.023438 65.429688 L 444.183594 64.996094 C 444.039062 65.265625 443.894531 65.535156 443.738281 65.800781 Z M 443.5 67.898438 C 443.6875 67.632812 443.871094 67.371094 444.046875 67.101562 L 443.253906 66.585938 C 443.085938 66.84375 442.917969 67.09375 442.734375 67.34375 Z M 442.296875 69.40625 C 442.507812 69.160156 442.714844 68.914062 442.917969 68.664062 L 442.175781 68.074219 C 441.984375 68.3125 441.789062 68.550781 441.589844 68.777344 Z M 440.953125 70.792969 C 441.1875 70.574219 441.417969 70.347656 441.644531 70.113281 L 440.96875 69.460938 C 440.753906 69.679688 440.535156 69.894531 440.308594 70.109375 Z M 439.476562 72.042969 C 439.730469 71.847656 439.988281 71.640625 440.226562 71.433594 L 439.613281 70.71875 C 439.382812 70.914062 439.144531 71.105469 438.898438 71.296875 Z M 437.886719 73.140625 C 438.164062 72.972656 438.429688 72.796875 438.699219 72.613281 L 438.160156 71.835938 C 437.90625 72.011719 437.648438 72.179688 437.386719 72.34375 Z M 436.203125 74.085938 C 436.492188 73.941406 436.777344 73.789062 437.054688 73.632812 L 436.597656 72.808594 C 436.328125 72.960938 436.058594 73.105469 435.78125 73.238281 Z M 434.425781 74.855469 C 434.726562 74.742188 435.03125 74.625 435.324219 74.492188 L 434.949219 73.625 C 434.664062 73.746094 434.382812 73.863281 434.09375 73.972656 Z M 432.589844 75.449219 C 432.902344 75.367188 433.210938 75.273438 433.519531 75.171875 L 433.230469 74.273438 C 432.933594 74.367188 432.648438 74.453125 432.347656 74.53125 Z M 430.695312 75.863281 C 431.011719 75.816406 431.335938 75.75 431.644531 75.679688 L 431.441406 74.757812 C 431.148438 74.820312 430.835938 74.886719 430.539062 74.925781 Z M 428.785156 76.082031 C 429.105469 76.0625 429.429688 76.03125 429.75 75.992188 L 429.636719 75.058594 C 429.335938 75.09375 429.027344 75.121094 428.722656 75.140625 Z M 426.851562 76.121094 C 427.171875 76.125 427.492188 76.132812 427.820312 76.125 L 427.800781 75.183594 C 427.492188 75.191406 427.183594 75.191406 426.878906 75.175781 Z M 424.929688 75.96875 C 425.246094 76.007812 425.566406 76.042969 425.886719 76.070312 L 425.957031 75.128906 C 425.648438 75.101562 425.347656 75.070312 425.042969 75.03125 Z M 423.023438 75.628906 C 423.335938 75.699219 423.65625 75.769531 423.96875 75.824219 L 424.125 74.894531 C 423.824219 74.839844 423.523438 74.78125 423.222656 74.710938 Z M 421.160156 75.109375 C 421.46875 75.207031 421.773438 75.304688 422.082031 75.390625 L 422.332031 74.480469 C 422.039062 74.398438 421.742188 74.304688 421.453125 74.210938 Z M 419.359375 74.40625 C 419.65625 74.535156 419.949219 74.664062 420.25 74.78125 L 420.589844 73.902344 C 420.300781 73.789062 420.019531 73.667969 419.742188 73.542969 Z M 417.640625 73.53125 C 417.925781 73.6875 418.207031 73.847656 418.496094 73.988281 L 418.921875 73.148438 C 418.644531 73.011719 418.375 72.867188 418.113281 72.707031 Z M 416.011719 72.488281 C 416.277344 72.675781 416.546875 72.851562 416.816406 73.027344 L 417.316406 72.230469 C 417.058594 72.066406 416.800781 71.890625 416.550781 71.714844 Z M 414.488281 71.296875 C 414.734375 71.503906 414.976562 71.710938 415.234375 71.910156 L 415.8125 71.164062 C 415.566406 70.976562 415.335938 70.78125 415.101562 70.578125 Z M 413.089844 69.957031 C 413.308594 70.191406 413.542969 70.417969 413.773438 70.640625 L 414.425781 69.957031 C 414.207031 69.746094 413.988281 69.53125 413.773438 69.304688 Z M 411.828125 68.496094 C 412.03125 68.746094 412.230469 68.996094 412.445312 69.242188 L 413.160156 68.625 C 412.957031 68.394531 412.765625 68.15625 412.574219 67.917969 Z M 410.71875 66.910156 C 410.890625 67.179688 411.070312 67.453125 411.257812 67.714844 L 412.03125 67.167969 C 411.855469 66.917969 411.6875 66.660156 411.515625 66.402344 Z M 409.761719 65.234375 C 409.90625 65.523438 410.054688 65.804688 410.21875 66.089844 L 411.035156 65.617188 C 410.882812 65.355469 410.738281 65.078125 410.601562 64.808594 Z M 408.976562 63.464844 C 409.097656 63.765625 409.214844 64.058594 409.347656 64.355469 L 410.207031 63.964844 C 410.082031 63.683594 409.960938 63.402344 409.855469 63.117188 Z M 408.367188 61.628906 C 408.457031 61.941406 408.550781 62.25 408.652344 62.550781 L 409.542969 62.25 C 409.441406 61.960938 409.351562 61.667969 409.273438 61.371094 Z M 407.941406 59.738281 C 408 60.058594 408.0625 60.371094 408.128906 60.6875 L 409.050781 60.472656 C 408.984375 60.179688 408.925781 59.871094 408.871094 59.570312 Z M 407.699219 57.824219 C 407.722656 58.144531 407.753906 58.464844 407.792969 58.785156 L 408.726562 58.664062 C 408.6875 58.355469 408.65625 58.054688 408.632812 57.746094 Z M 407.648438 55.882812 C 407.640625 56.203125 407.640625 56.527344 407.652344 56.847656 L 408.59375 56.816406 C 408.589844 56.511719 408.589844 56.203125 408.589844 55.894531 Z M 407.78125 53.953125 C 407.742188 54.273438 407.710938 54.59375 407.691406 54.921875 L 408.632812 54.984375 C 408.652344 54.675781 408.683594 54.375 408.71875 54.066406 Z M 408.097656 52.042969 C 408.03125 52.363281 407.96875 52.671875 407.917969 52.992188 L 408.84375 53.148438 C 408.894531 52.847656 408.957031 52.546875 409.019531 52.246094 Z M 408.601562 50.179688 C 408.5 50.488281 408.414062 50.792969 408.324219 51.109375 L 409.234375 51.347656 C 409.316406 51.050781 409.402344 50.757812 409.496094 50.460938 Z M 409.285156 48.371094 C 409.160156 48.664062 409.035156 48.964844 408.921875 49.269531 L 409.804688 49.601562 C 409.910156 49.3125 410.03125 49.03125 410.148438 48.746094 Z M 410.144531 46.636719 C 409.988281 46.917969 409.835938 47.203125 409.691406 47.492188 L 410.539062 47.90625 C 410.671875 47.628906 410.820312 47.359375 410.964844 47.089844 Z M 411.164062 44.992188 C 410.984375 45.253906 410.808594 45.523438 410.632812 45.800781 L 411.433594 46.304688 C 411.597656 46.039062 411.765625 45.789062 411.941406 45.53125 Z M 412.34375 43.457031 C 412.136719 43.703125 411.9375 43.953125 411.734375 44.210938 L 412.480469 44.789062 C 412.671875 44.542969 412.863281 44.304688 413.058594 44.074219 Z M 413.660156 42.046875 C 413.429688 42.269531 413.203125 42.496094 412.984375 42.734375 L 413.671875 43.382812 C 413.886719 43.15625 414.101562 42.9375 414.320312 42.722656 Z M 415.117188 40.769531 C 414.863281 40.972656 414.621094 41.179688 414.375 41.390625 L 415.003906 42.101562 C 415.234375 41.902344 415.464844 41.699219 415.710938 41.511719 Z M 416.683594 39.640625 C 416.414062 39.816406 416.144531 39.996094 415.886719 40.1875 L 416.4375 40.953125 C 416.6875 40.777344 416.941406 40.601562 417.195312 40.429688 Z M 418.351562 38.664062 C 418.0625 38.808594 417.78125 38.96875 417.503906 39.128906 L 417.980469 39.945312 C 418.246094 39.796875 418.515625 39.644531 418.789062 39.5 Z M 420.113281 37.863281 C 419.8125 37.980469 419.515625 38.105469 419.222656 38.246094 L 419.617188 39.105469 C 419.898438 38.980469 420.183594 38.855469 420.464844 38.742188 Z M 421.9375 37.234375 C 421.628906 37.320312 421.316406 37.421875 421.015625 37.523438 L 421.324219 38.414062 C 421.613281 38.3125 421.90625 38.21875 422.199219 38.136719 Z M 423.820312 36.789062 C 423.511719 36.839844 423.179688 36.914062 422.871094 36.988281 L 423.089844 37.90625 C 423.378906 37.835938 423.699219 37.761719 423.992188 37.71875 Z M 425.730469 36.53125 C 425.410156 36.554688 425.085938 36.59375 424.773438 36.636719 L 424.902344 37.574219 C 425.203125 37.527344 425.511719 37.496094 425.820312 37.472656 Z M 428.40625 36.480469 C 428.089844 36.46875 427.769531 36.453125 427.441406 36.453125 L 427.441406 37.398438 C 427.75 37.398438 428.058594 37.402344 428.363281 37.421875 L 428.40625 36.480469 L 427.441406 36.453125 C 427.191406 36.453125 426.945312 36.460938 426.695312 36.46875 L 426.734375 37.410156 C 426.972656 37.402344 427.203125 37.398438 427.441406 37.398438 Z M 441.46875 55.53125 C 441.476562 55.617188 441.480469 55.75 441.480469 55.914062 L 441.492188 56.289062 C 441.492188 60.179688 439.921875 63.695312 437.378906 66.238281 C 434.839844 68.785156 431.324219 70.359375 427.449219 70.359375 C 426.871094 70.359375 426.269531 70.320312 425.648438 70.242188 C 425.042969 70.160156 424.445312 70.046875 423.875 69.894531 L 424.515625 67.464844 C 425.003906 67.589844 425.484375 67.691406 425.960938 67.746094 C 426.433594 67.808594 426.921875 67.835938 427.441406 67.835938 C 430.628906 67.835938 433.511719 66.539062 435.601562 64.449219 C 437.6875 62.359375 438.980469 59.46875 438.980469 56.277344 L 438.980469 55.957031 C 438.980469 55.894531 438.972656 55.792969 438.96875 55.648438 Z M 427.441406 78.777344 C 421.246094 78.777344 415.636719 76.257812 411.574219 72.195312 C 407.511719 68.125 405 62.503906 405 56.296875 C 405 54.988281 405.113281 53.683594 405.339844 52.394531 C 405.566406 51.113281 405.90625 49.847656 406.351562 48.613281 L 407.234375 48.933594 C 406.808594 50.109375 406.480469 51.320312 406.269531 52.558594 C 406.054688 53.789062 405.941406 55.039062 405.941406 56.296875 C 405.941406 62.246094 408.351562 67.628906 412.238281 71.527344 C 416.125 75.421875 421.503906 77.835938 427.441406 77.835938 Z M 424.058594 34.066406 C 424.613281 33.980469 425.179688 33.917969 425.742188 33.875 C 426.3125 33.828125 426.878906 33.8125 427.4375 33.8125 C 433.632812 33.8125 439.242188 36.328125 443.304688 40.394531 C 447.367188 44.464844 449.878906 50.085938 449.878906 56.289062 C 449.878906 57.019531 449.839844 57.761719 449.765625 58.507812 C 449.6875 59.253906 449.582031 59.984375 449.4375 60.699219 L 448.511719 60.515625 C 448.648438 59.8125 448.753906 59.109375 448.824219 58.414062 C 448.894531 57.714844 448.925781 57.011719 448.925781 56.289062 C 448.925781 50.34375 446.515625 44.960938 442.628906 41.058594 C 438.742188 37.160156 433.363281 34.753906 427.421875 34.753906 C 426.878906 34.753906 426.332031 34.773438 425.800781 34.816406 C 425.261719 34.851562 424.722656 34.917969 424.183594 34.996094 Z M 427.441406 28.296875 C 435.160156 28.296875 442.144531 31.429688 447.207031 36.5 C 452.265625 41.566406 455.394531 48.566406 455.394531 56.296875 C 455.394531 64.027344 452.265625 71.027344 447.207031 76.09375 C 442.144531 81.164062 435.160156 84.296875 427.441406 84.296875 C 419.722656 84.296875 412.738281 81.164062 407.679688 76.09375 C 402.617188 71.027344 399.492188 64.027344 399.492188 56.296875 L 399.804688 56.296875 C 399.804688 63.941406 402.894531 70.863281 407.898438 75.867188 C 412.902344 80.878906 419.804688 83.976562 427.4375 83.976562 C 435.066406 83.976562 441.976562 80.878906 446.972656 75.867188 C 451.976562 70.855469 455.070312 63.941406 455.070312 56.296875 C 455.070312 48.652344 451.976562 41.730469 446.972656 36.726562 C 441.96875 31.710938 435.066406 28.617188 427.4375 28.617188 L 427.4375 28.296875 Z M 413.390625 56.289062 C 413.390625 52.402344 414.964844 48.886719 417.503906 46.339844 C 420.042969 43.796875 423.5625 42.222656 427.4375 42.222656 C 427.644531 42.222656 427.894531 42.226562 428.183594 42.246094 C 428.441406 42.257812 428.691406 42.277344 428.933594 42.308594 L 428.671875 44.808594 C 428.457031 44.785156 428.257812 44.769531 428.058594 44.757812 C 427.886719 44.753906 427.679688 44.746094 427.4375 44.746094 C 424.25 44.746094 421.367188 46.039062 419.277344 48.132812 C 417.191406 50.222656 415.898438 53.113281 415.898438 56.304688 L 413.390625 56.304688 Z M 440.390625 45.328125 C 438.992188 43.679688 437.34375 42.339844 435.441406 41.316406 L 435.148438 41.871094 C 436.984375 42.863281 438.566406 44.148438 439.914062 45.738281 Z M 444.019531 52.746094 C 443.570312 50.644531 442.734375 48.660156 441.542969 46.867188 L 441.023438 47.21875 C 442.171875 48.941406 442.972656 50.855469 443.40625 52.878906 Z M 443.730469 61 C 444.316406 58.972656 444.535156 56.742188 444.316406 54.644531 L 443.6875 54.707031 C 443.90625 56.699219 443.675781 58.902344 443.125 60.824219 Z M 439.582031 68.144531 C 441.085938 66.589844 442.257812 64.820312 443.09375 62.824219 L 442.507812 62.582031 C 441.707031 64.507812 440.578125 66.214844 439.125 67.710938 Z M 432.566406 72.484375 C 434.585938 71.855469 436.527344 70.78125 438.164062 69.441406 L 437.761719 68.960938 C 436.183594 70.253906 434.320312 71.277344 432.371094 71.886719 Z M 424.332031 72.984375 C 426.433594 73.375 428.609375 73.367188 430.703125 72.953125 L 430.582031 72.339844 C 428.566406 72.734375 426.46875 72.742188 424.453125 72.363281 Z M 416.839844 69.542969 C 418.519531 70.894531 420.40625 71.898438 422.46875 72.53125 L 422.652344 71.929688 C 420.664062 71.316406 418.859375 70.355469 417.234375 69.054688 Z M 411.847656 62.960938 C 412.683594 64.921875 413.910156 66.742188 415.410156 68.25 L 415.855469 67.804688 C 414.40625 66.328125 413.234375 64.613281 412.425781 62.710938 Z M 410.558594 54.800781 C 410.375 56.917969 410.582031 59.117188 411.195312 61.152344 L 411.796875 60.96875 C 411.203125 59.011719 411.007812 56.898438 411.183594 54.859375 Z M 413.253906 46.996094 C 412.074219 48.804688 411.265625 50.777344 410.828125 52.898438 L 411.441406 53.019531 C 411.847656 50.988281 412.644531 49.066406 413.773438 47.339844 Z M 419.308594 41.390625 C 417.433594 42.414062 415.761719 43.804688 414.394531 45.449219 L 414.878906 45.851562 C 416.1875 44.269531 417.8125 42.925781 419.609375 41.945312 Z M 427.292969 39.3125 C 425.136719 39.332031 423.046875 39.753906 421.046875 40.5625 L 421.285156 41.148438 C 423.203125 40.367188 425.230469 39.960938 427.296875 39.941406 Z M 433.699219 40.507812 C 431.6875 39.707031 429.613281 39.320312 427.441406 39.3125 L 427.441406 39.941406 C 429.53125 39.945312 431.523438 40.324219 433.46875 41.089844 Z M 453.769531 51.121094 C 453.933594 51.949219 454.058594 52.8125 454.140625 53.695312 C 454.230469 54.589844 454.273438 55.453125 454.273438 56.289062 C 454.273438 63.714844 451.269531 70.429688 446.414062 75.289062 C 441.5625 80.152344 434.855469 83.160156 427.441406 83.160156 C 426.742188 83.160156 426.027344 83.128906 425.3125 83.074219 C 424.628906 83.015625 423.917969 82.933594 423.191406 82.816406 L 423.585938 80.335938 C 424.199219 80.433594 424.839844 80.511719 425.511719 80.558594 C 426.144531 80.609375 426.789062 80.636719 427.449219 80.636719 C 434.164062 80.636719 440.238281 77.910156 444.640625 73.5 C 449.042969 69.089844 451.765625 63.003906 451.765625 56.277344 C 451.765625 55.460938 451.726562 54.675781 451.652344 53.921875 C 451.578125 53.164062 451.464844 52.382812 451.308594 51.59375 Z M 427.441406 80.308594 C 420.820312 80.308594 414.828125 77.621094 410.488281 73.273438 C 406.148438 68.925781 403.464844 62.921875 403.464844 56.289062 C 403.464844 49.65625 406.148438 43.652344 410.488281 39.304688 C 414.828125 34.960938 420.820312 32.273438 427.441406 32.273438 C 434.0625 32.273438 440.058594 34.960938 444.398438 39.304688 C 448.734375 43.652344 451.417969 49.65625 451.417969 56.289062 L 451.105469 56.289062 C 451.105469 49.746094 448.460938 43.816406 444.175781 39.527344 C 439.894531 35.238281 433.976562 32.585938 427.441406 32.585938 C 420.910156 32.585938 414.988281 35.238281 410.707031 39.527344 C 406.425781 43.816406 403.777344 49.746094 403.777344 56.289062 C 403.777344 62.835938 406.425781 68.765625 410.707031 73.054688 C 414.988281 77.34375 420.910156 79.996094 427.441406 79.996094 Z M 430.050781 23.832031 C 429.179688 23.761719 428.3125 23.730469 427.441406 23.730469 L 427.441406 26.25 C 428.25 26.25 429.054688 26.28125 429.863281 26.34375 L 430.050781 23.832031 L 427.441406 23.730469 L 427.25 23.730469 L 427.265625 26.25 L 427.441406 26.25 Z M 360.164062 46.007812 L 390.769531 46.007812 L 390.769531 45.203125 L 360.394531 45.203125 L 342.625 14.371094 L 306.867188 14.371094 L 306.867188 13.867188 L 305.132812 13.867188 L 305.132812 15.675781 L 306.867188 15.675781 L 306.867188 15.175781 L 342.15625 15.175781 L 342.75 16.203125 L 306.867188 16.203125 L 306.867188 15.703125 L 305.132812 15.703125 L 305.132812 17.511719 L 306.867188 17.511719 L 306.867188 17.007812 L 343.214844 17.007812 L 359.933594 46.007812 Z M 360.164062 46.007812 " fill-opacity="1" fill-rule="nonzero"/></g><path fill="#233dff" d="M 153.96875 64.742188 L 122.675781 64.742188 L 122.675781 63.824219 L 153.96875 63.824219 L 153.96875 64.742188 " fill-opacity="1" fill-rule="nonzero"/><g clip-path="url(#1c6a07d1cb)"><path fill="#233dff" d="M 159.492188 49.636719 C 158.101562 49.636719 156.976562 48.511719 156.976562 47.121094 C 156.976562 45.730469 158.101562 44.605469 159.492188 44.605469 C 160.878906 44.605469 162.003906 45.730469 162.003906 47.121094 C 162.003906 48.511719 160.878906 49.636719 159.492188 49.636719 Z M 159.492188 43.128906 C 157.289062 43.128906 155.503906 44.917969 155.503906 47.121094 C 155.503906 49.328125 157.289062 51.113281 159.492188 51.113281 C 161.695312 51.113281 163.480469 49.328125 163.480469 47.121094 C 163.480469 44.917969 161.695312 43.128906 159.492188 43.128906 " fill-opacity="1" fill-rule="nonzero"/></g><path fill="#233dff" d="M 130.957031 76.632812 C 129.570312 76.632812 128.445312 75.503906 128.445312 74.113281 C 128.445312 72.722656 129.570312 71.597656 130.957031 71.597656 C 132.347656 71.597656 133.472656 72.722656 133.472656 74.113281 C 133.472656 75.503906 132.347656 76.632812 130.957031 76.632812 Z M 130.957031 70.121094 C 128.753906 70.121094 126.96875 71.910156 126.96875 74.113281 C 126.96875 76.320312 128.753906 78.105469 130.957031 78.105469 C 133.160156 78.105469 134.945312 76.320312 134.945312 74.113281 C 134.945312 71.910156 133.160156 70.121094 130.957031 70.121094 " fill-opacity="1" fill-rule="nonzero"/><path fill="#233dff" d="M 48.402344 66.734375 C 46.882812 66.734375 45.652344 67.964844 45.652344 69.488281 C 45.652344 71.007812 46.882812 72.238281 48.402344 72.238281 C 49.921875 72.238281 51.152344 71.007812 51.152344 69.488281 C 51.152344 67.964844 49.921875 66.734375 48.402344 66.734375 " fill-opacity="1" fill-rule="nonzero"/><path fill="#233dff" d="M 156.039062 61.53125 C 154.519531 61.53125 153.285156 62.761719 153.285156 64.285156 C 153.285156 65.804688 154.519531 67.039062 156.039062 67.039062 C 157.558594 67.039062 158.789062 65.804688 158.789062 64.285156 C 158.789062 62.761719 157.558594 61.53125 156.039062 61.53125 " fill-opacity="1" fill-rule="nonzero"/><path fill="#233dff" d="M 129.71875 35.140625 C 128.199219 35.140625 126.96875 36.371094 126.96875 37.890625 C 126.96875 39.410156 128.199219 40.644531 129.71875 40.644531 C 131.238281 40.644531 132.46875 39.410156 132.46875 37.890625 C 132.46875 36.371094 131.238281 35.140625 129.71875 35.140625 " fill-opacity="1" fill-rule="nonzero"/><path fill="#233dff" d="M 113.910156 59.855469 C 112.953125 59.855469 112.175781 59.078125 112.175781 58.117188 C 112.175781 57.160156 112.953125 56.382812 113.910156 56.382812 C 114.867188 56.382812 115.644531 57.160156 115.644531 58.117188 C 115.644531 59.078125 114.867188 59.855469 113.910156 59.855469 Z M 113.910156 55.367188 C 112.390625 55.367188 111.160156 56.597656 111.160156 58.117188 C 111.160156 59.640625 112.390625 60.871094 113.910156 60.871094 C 115.429688 60.871094 116.660156 59.640625 116.660156 58.117188 C 116.660156 56.597656 115.429688 55.367188 113.910156 55.367188 " fill-opacity="1" fill-rule="nonzero"/><path fill="#233dff" d="M 53.257812 41.363281 C 52.300781 41.363281 51.523438 40.585938 51.523438 39.628906 C 51.523438 38.667969 52.300781 37.890625 53.257812 37.890625 C 54.214844 37.890625 54.992188 38.667969 54.992188 39.628906 C 54.992188 40.585938 54.214844 41.363281 53.257812 41.363281 Z M 53.257812 36.875 C 51.738281 36.875 50.507812 38.105469 50.507812 39.628906 C 50.507812 41.148438 51.738281 42.378906 53.257812 42.378906 C 54.777344 42.378906 56.007812 41.148438 56.007812 39.628906 C 56.007812 38.105469 54.777344 36.875 53.257812 36.875 " fill-opacity="1" fill-rule="nonzero"/><g clip-path="url(#67def29bc4)"><path fill="#233dff" d="M 59.410156 86.828125 L 23.726562 86.828125 L 0 110.550781 L 0 112.492188 L 24.296875 88.203125 L 59.980469 88.203125 L 73.285156 74.886719 L 127.796875 74.886719 L 127.796875 73.511719 L 72.714844 73.511719 Z M 51.25 40.417969 L 51.25 39.046875 L 17.695312 39.046875 L 0 21.335938 L 0 23.28125 L 17.125 40.417969 Z M 97.6875 46.496094 L 87.917969 56.277344 L 70.542969 56.277344 L 62.355469 48.082031 L 0 48.082031 L 0 49.453125 L 61.785156 49.453125 L 69.972656 57.648438 L 88.488281 57.648438 L 98.253906 47.871094 L 156.039062 47.871094 L 156.039062 46.496094 Z M 23.820312 25.238281 L 59.507812 25.238281 L 72.808594 38.550781 L 127.796875 38.550781 L 127.796875 37.636719 L 73.191406 37.636719 L 59.886719 24.320312 L 24.203125 24.320312 L 0 0.015625 L 0 1.3125 L 23.6875 25.101562 Z M 61.304688 69.070312 L 61.4375 69.203125 L 103.703125 69.203125 L 112.503906 60.390625 L 111.855469 59.746094 L 103.320312 68.285156 L 61.816406 68.285156 L 51.574219 58.035156 L 51.4375 57.898438 L 0 57.898438 L 0 58.816406 L 51.058594 58.816406 Z M 45.96875 69.996094 L 45.96875 69.082031 L 12.953125 69.082031 L 0 82.046875 L 0 83.339844 L 13.332031 69.996094 L 45.96875 69.996094 " fill-opacity="1" fill-rule="nonzero"/></g><path fill="#233dff" d="M 700.898438 64.742188 L 732.191406 64.742188 L 732.191406 63.824219 L 700.898438 63.824219 L 700.898438 64.742188 " fill-opacity="1" fill-rule="nonzero"/><g clip-path="url(#ccdf2c92e6)"><path fill="#233dff" d="M 695.378906 49.636719 C 696.765625 49.636719 697.894531 48.511719 697.894531 47.121094 C 697.894531 45.730469 696.765625 44.605469 695.378906 44.605469 C 693.988281 44.605469 692.863281 45.730469 692.863281 47.121094 C 692.863281 48.511719 693.988281 49.636719 695.378906 49.636719 Z M 695.378906 43.128906 C 697.582031 43.128906 699.367188 44.917969 699.367188 47.121094 C 699.367188 49.328125 697.582031 51.113281 695.378906 51.113281 C 693.175781 51.113281 691.390625 49.328125 691.390625 47.121094 C 691.390625 44.917969 693.175781 43.128906 695.378906 43.128906 " fill-opacity="1" fill-rule="nonzero"/></g><path fill="#233dff" d="M 723.910156 76.632812 C 725.300781 76.632812 726.425781 75.503906 726.425781 74.113281 C 726.425781 72.722656 725.300781 71.597656 723.910156 71.597656 C 722.523438 71.597656 721.398438 72.722656 721.398438 74.113281 C 721.398438 75.503906 722.523438 76.632812 723.910156 76.632812 Z M 723.910156 70.121094 C 726.113281 70.121094 727.898438 71.910156 727.898438 74.113281 C 727.898438 76.320312 726.113281 78.105469 723.910156 78.105469 C 721.707031 78.105469 719.921875 76.320312 719.921875 74.113281 C 719.921875 71.910156 721.707031 70.121094 723.910156 70.121094 " fill-opacity="1" fill-rule="nonzero"/><path fill="#233dff" d="M 806.46875 66.734375 C 807.988281 66.734375 809.21875 67.964844 809.21875 69.488281 C 809.21875 71.007812 807.988281 72.238281 806.46875 72.238281 C 804.949219 72.238281 803.71875 71.007812 803.71875 69.488281 C 803.71875 67.964844 804.949219 66.734375 806.46875 66.734375 " fill-opacity="1" fill-rule="nonzero"/><path fill="#233dff" d="M 698.832031 61.53125 C 700.351562 61.53125 701.582031 62.761719 701.582031 64.285156 C 701.582031 65.804688 700.351562 67.039062 698.832031 67.039062 C 697.3125 67.039062 696.082031 65.804688 696.082031 64.285156 C 696.082031 62.761719 697.3125 61.53125 698.832031 61.53125 " fill-opacity="1" fill-rule="nonzero"/><path fill="#233dff" d="M 725.148438 35.140625 C 726.667969 35.140625 727.898438 36.371094 727.898438 37.890625 C 727.898438 39.410156 726.667969 40.644531 725.148438 40.644531 C 723.628906 40.644531 722.398438 39.410156 722.398438 37.890625 C 722.398438 36.371094 723.628906 35.140625 725.148438 35.140625 " fill-opacity="1" fill-rule="nonzero"/><path fill="#233dff" d="M 740.957031 59.855469 C 741.917969 59.855469 742.691406 59.078125 742.691406 58.117188 C 742.691406 57.160156 741.917969 56.382812 740.957031 56.382812 C 740 56.382812 739.226562 57.160156 739.226562 58.117188 C 739.226562 59.078125 740 59.855469 740.957031 59.855469 Z M 740.957031 55.367188 C 742.476562 55.367188 743.710938 56.597656 743.710938 58.117188 C 743.710938 59.640625 742.476562 60.871094 740.957031 60.871094 C 739.441406 60.871094 738.210938 59.640625 738.210938 58.117188 C 738.210938 56.597656 739.441406 55.367188 740.957031 55.367188 " fill-opacity="1" fill-rule="nonzero"/><path fill="#233dff" d="M 801.609375 41.363281 C 802.570312 41.363281 803.34375 40.585938 803.34375 39.628906 C 803.34375 38.667969 802.570312 37.890625 801.609375 37.890625 C 800.652344 37.890625 799.875 38.667969 799.875 39.628906 C 799.875 40.585938 800.652344 41.363281 801.609375 41.363281 Z M 801.609375 36.875 C 803.128906 36.875 804.363281 38.105469 804.363281 39.628906 C 804.363281 41.148438 803.128906 42.378906 801.609375 42.378906 C 800.089844 42.378906 798.859375 41.148438 798.859375 39.628906 C 798.859375 38.105469 800.089844 36.875 801.609375 36.875 " fill-opacity="1" fill-rule="nonzero"/><g clip-path="url(#1b7b78c765)"><path fill="#233dff" d="M 795.457031 86.828125 L 831.140625 86.828125 L 854.871094 110.550781 L 854.871094 112.492188 L 830.574219 88.203125 L 794.890625 88.203125 L 781.585938 74.886719 L 727.074219 74.886719 L 727.074219 73.511719 L 782.152344 73.511719 Z M 803.621094 40.417969 L 803.621094 39.046875 L 837.175781 39.046875 L 854.871094 21.335938 L 854.871094 23.28125 L 837.742188 40.417969 Z M 757.183594 46.496094 L 766.953125 56.277344 L 784.328125 56.277344 L 792.515625 48.082031 L 854.871094 48.082031 L 854.871094 49.453125 L 793.082031 49.453125 L 784.894531 57.648438 L 766.382812 57.648438 L 756.613281 47.871094 L 698.832031 47.871094 L 698.832031 46.496094 Z M 831.046875 25.238281 L 795.363281 25.238281 L 782.058594 38.550781 L 727.074219 38.550781 L 727.074219 37.636719 L 781.679688 37.636719 L 794.984375 24.320312 L 830.667969 24.320312 L 854.871094 0.015625 L 854.871094 1.3125 L 831.179688 25.101562 Z M 793.566406 69.070312 L 793.433594 69.203125 L 751.167969 69.203125 L 742.363281 60.390625 L 743.011719 59.746094 L 751.546875 68.285156 L 793.054688 68.285156 L 803.296875 58.035156 L 803.429688 57.898438 L 854.871094 57.898438 L 854.871094 58.816406 L 803.808594 58.816406 Z M 808.898438 69.996094 L 808.898438 69.082031 L 841.917969 69.082031 L 854.871094 82.046875 L 854.871094 83.339844 L 841.539062 69.996094 L 808.898438 69.996094 " fill-opacity="1" fill-rule="nonzero"/></g></svg>