<svg xmlns="http://www.w3.org/2000/svg" xmlns:xlink="http://www.w3.org/1999/xlink" width="306" zoomAndPan="magnify" viewBox="0 0 229.5 262.500001" height="350" preserveAspectRatio="xMidYMid meet" version="1.0"><defs><filter x="0%" y="0%" width="100%" height="100%" id="4839d24f9f"><feColorMatrix values="0 0 0 0 1 0 0 0 0 1 0 0 0 0 1 0 0 0 1 0" color-interpolation-filters="sRGB"/></filter><clipPath id="8342d637de"><path d="M 0 0.0351562 L 229 0.0351562 L 229 261.964844 L 0 261.964844 Z M 0 0.0351562 " clip-rule="nonzero"/></clipPath><clipPath id="69b1ba92f6"><path d="M 0 219 L 229 219 L 229 261.964844 L 0 261.964844 Z M 0 219 " clip-rule="nonzero"/></clipPath><mask id="28a94485e3"><g filter="url(#4839d24f9f)"><rect x="-22.95" width="275.4" fill="#000000" y="-26.25" height="315.000001" fill-opacity="0.6"/></g></mask><clipPath id="d580851902"><path d="M 0 8 L 227 8 L 227 42.964844 L 0 42.964844 Z M 0 8 " clip-rule="nonzero"/></clipPath><clipPath id="f7bf330572"><path d="M 216 2.226562 L 229 2.226562 L 229 16 L 216 16 Z M 216 2.226562 " clip-rule="nonzero"/></clipPath><clipPath id="a807416076"><rect x="0" width="229" y="0" height="43"/></clipPath><clipPath id="f86a929f45"><path d="M 0 0.0351562 L 229 0.0351562 L 229 184 L 0 184 Z M 0 0.0351562 " clip-rule="nonzero"/></clipPath><mask id="86b3537f1e"><g filter="url(#4839d24f9f)"><rect x="-22.95" width="275.4" fill="#000000" y="-26.25" height="315.000001" fill-opacity="0.6196"/></g></mask><clipPath id="9ff862b20c"><path d="M 0 0.0351562 L 229 0.0351562 L 229 183.273438 L 0 183.273438 Z M 0 0.0351562 " clip-rule="nonzero"/></clipPath><clipPath id="4eafa44a4f"><rect x="0" width="229" y="0" height="184"/></clipPath></defs><g clip-path="url(#8342d637de)"><path fill="#ffffff" d="M 0 0.0351562 L 229.5 0.0351562 L 229.5 270.035156 L 0 270.035156 Z M 0 0.0351562 " fill-opacity="1" fill-rule="nonzero"/><path fill="#ffffff" d="M 0 0.0351562 L 229.5 0.0351562 L 229.5 262.535156 L 0 262.535156 Z M 0 0.0351562 " fill-opacity="1" fill-rule="nonzero"/><path fill="#050a30" d="M 0 0.0351562 L 229.5 0.0351562 L 229.5 262.535156 L 0 262.535156 Z M 0 0.0351562 " fill-opacity="1" fill-rule="nonzero"/></g><g clip-path="url(#69b1ba92f6)"><g mask="url(#28a94485e3)"><g transform="matrix(1, 0, 0, 1, 0, 219)"><g clip-path="url(#a807416076)"><g clip-path="url(#d580851902)"><path fill="#233dff" d="M 226.441406 8.097656 L 226.441406 9.519531 L 36.015625 9.519531 L 2.046875 43.441406 L 0.0273438 43.441406 L 35.433594 8.097656 Z M 226.441406 8.097656 " fill-opacity="1" fill-rule="nonzero"/></g><g clip-path="url(#f7bf330572)"><path fill="#233dff" d="M 229.484375 8.808594 C 229.484375 9.238281 229.445312 9.667969 229.359375 10.089844 C 229.273438 10.515625 229.148438 10.925781 228.984375 11.324219 C 228.820312 11.722656 228.617188 12.101562 228.375 12.460938 C 228.136719 12.820312 227.863281 13.152344 227.558594 13.457031 C 227.25 13.761719 226.917969 14.035156 226.558594 14.273438 C 226.199219 14.515625 225.820312 14.714844 225.421875 14.882812 C 225.023438 15.046875 224.609375 15.171875 224.1875 15.253906 C 223.761719 15.339844 223.335938 15.382812 222.902344 15.382812 C 222.46875 15.382812 222.042969 15.339844 221.617188 15.253906 C 221.195312 15.171875 220.78125 15.046875 220.382812 14.882812 C 219.984375 14.714844 219.605469 14.515625 219.246094 14.273438 C 218.886719 14.035156 218.550781 13.761719 218.246094 13.457031 C 217.941406 13.152344 217.667969 12.820312 217.429688 12.460938 C 217.1875 12.101562 216.984375 11.722656 216.820312 11.324219 C 216.65625 10.925781 216.53125 10.515625 216.445312 10.089844 C 216.359375 9.667969 216.320312 9.238281 216.320312 8.808594 C 216.320312 8.375 216.359375 7.949219 216.445312 7.523438 C 216.53125 7.101562 216.65625 6.691406 216.820312 6.292969 C 216.984375 5.894531 217.1875 5.515625 217.429688 5.15625 C 217.667969 4.796875 217.941406 4.464844 218.246094 4.160156 C 218.550781 3.855469 218.886719 3.582031 219.246094 3.339844 C 219.605469 3.101562 219.984375 2.898438 220.382812 2.734375 C 220.78125 2.570312 221.195312 2.445312 221.617188 2.359375 C 222.042969 2.277344 222.46875 2.234375 222.902344 2.234375 C 223.335938 2.234375 223.761719 2.277344 224.1875 2.359375 C 224.609375 2.445312 225.023438 2.570312 225.421875 2.734375 C 225.820312 2.898438 226.199219 3.101562 226.558594 3.339844 C 226.917969 3.582031 227.25 3.855469 227.558594 4.160156 C 227.863281 4.464844 228.136719 4.796875 228.375 5.15625 C 228.617188 5.515625 228.820312 5.894531 228.984375 6.292969 C 229.148438 6.691406 229.273438 7.101562 229.359375 7.523438 C 229.445312 7.949219 229.484375 8.375 229.484375 8.808594 Z M 229.484375 8.808594 " fill-opacity="1" fill-rule="nonzero"/></g><path fill="#233dff" d="M 34.15625 27.152344 L 18.058594 27.152344 L 18.058594 25.734375 L 33.558594 25.734375 L 45.6875 13.621094 L 185.605469 13.621094 L 190.824219 8.410156 L 191.832031 9.417969 L 186.203125 15.042969 L 46.269531 15.042969 Z M 34.15625 27.152344 " fill-opacity="1" fill-rule="nonzero"/></g></g></g></g><g clip-path="url(#f86a929f45)"><g mask="url(#86b3537f1e)"><g transform="matrix(1, 0, 0, 1, 0, -0.000000000000018471)"><g clip-path="url(#4eafa44a4f)"><g clip-path="url(#9ff862b20c)"><path fill="#233dff" d="M 118.542969 71.46875 L 118.542969 75.019531 L 114.992188 75.019531 L 114.992188 71.46875 Z M 206.242188 153.730469 C 206.921875 153.980469 207.410156 154.628906 207.410156 155.390625 C 207.410156 156.371094 206.613281 157.167969 205.632812 157.167969 C 204.65625 157.167969 203.859375 156.371094 203.859375 155.390625 C 203.859375 154.628906 204.347656 153.980469 205.027344 153.730469 L 205.027344 153.769531 L 206.242188 153.769531 Z M 226.855469 111.421875 L 225.15625 114.367188 L 223.457031 111.421875 Z M 161.335938 126.757812 C 161.335938 127.734375 160.539062 128.53125 159.558594 128.53125 C 158.582031 128.53125 157.785156 127.734375 157.785156 126.757812 C 157.785156 125.777344 158.582031 124.980469 159.558594 124.980469 C 160.539062 124.980469 161.335938 125.777344 161.335938 126.757812 Z M 182.332031 178.507812 L 182.332031 182.058594 L 178.78125 182.058594 L 178.78125 178.507812 Z M 139.289062 126.429688 L 137.589844 129.371094 L 135.886719 126.429688 Z M 85.609375 -15.6875 L 85.609375 -12.136719 L 82.058594 -12.136719 L 82.058594 -15.6875 Z M 71.226562 25.105469 C 71.226562 26.082031 70.429688 26.878906 69.449219 26.878906 C 68.46875 26.878906 67.675781 26.082031 67.675781 25.105469 C 67.675781 24.125 68.46875 23.328125 69.449219 23.328125 C 70.429688 23.328125 71.226562 24.125 71.226562 25.105469 Z M 98.382812 40.949219 L 96.683594 43.894531 L 94.984375 40.949219 Z M 219.90625 -67.082031 L 223.457031 -67.082031 L 223.457031 -63.53125 L 219.90625 -63.53125 Z M 226.449219 -13.898438 C 227.429688 -13.898438 228.226562 -13.101562 228.226562 -12.121094 C 228.226562 -11.144531 227.429688 -10.347656 226.449219 -10.347656 C 225.472656 -10.347656 224.675781 -11.144531 224.675781 -12.121094 C 224.675781 -13.101562 225.472656 -13.898438 226.449219 -13.898438 Z M 142.535156 -22.234375 C 144.734375 -22.234375 146.523438 -20.445312 146.523438 -18.246094 C 146.523438 -14.535156 149.542969 -11.515625 153.257812 -11.515625 L 223.523438 -11.515625 C 223.804688 -10.15625 225.007812 -9.128906 226.449219 -9.128906 C 228.101562 -9.128906 229.441406 -10.472656 229.441406 -12.121094 C 229.441406 -13.773438 228.101562 -15.113281 226.449219 -15.113281 C 225.007812 -15.113281 223.804688 -14.089844 223.523438 -12.730469 L 153.257812 -12.730469 C 150.214844 -12.730469 147.742188 -15.203125 147.742188 -18.246094 C 147.742188 -19.847656 147.011719 -21.277344 145.871094 -22.234375 L 147.132812 -22.234375 C 154.75 -22.234375 160.945312 -28.433594 160.945312 -36.050781 L 160.945312 -52.101562 C 160.945312 -59.046875 166.597656 -64.699219 173.542969 -64.699219 L 218.691406 -64.699219 L 218.691406 -62.921875 C 218.691406 -62.585938 218.964844 -62.316406 219.300781 -62.316406 L 224.066406 -62.316406 C 224.402344 -62.316406 224.675781 -62.585938 224.675781 -62.921875 L 224.675781 -67.691406 C 224.675781 -68.027344 224.402344 -68.300781 224.066406 -68.300781 L 219.300781 -68.300781 C 218.964844 -68.300781 218.691406 -68.027344 218.691406 -67.691406 L 218.691406 -65.914062 L 173.542969 -65.914062 C 165.929688 -65.914062 159.730469 -59.71875 159.730469 -52.101562 L 159.730469 -36.050781 C 159.730469 -29.101562 154.078125 -23.449219 147.132812 -23.449219 L 117.019531 -23.449219 C 115.070312 -34.734375 105.21875 -43.34375 93.386719 -43.34375 L 58.957031 -43.34375 C 46.402344 -43.34375 36.1875 -53.558594 36.1875 -66.117188 L 36.1875 -69.476562 L 34.96875 -69.476562 L 34.96875 -27.789062 C 34.96875 -22.988281 31.066406 -19.085938 26.265625 -19.085938 L 2.304688 -19.085938 L 2.304688 -17.867188 L 26.265625 -17.867188 C 30.015625 -17.867188 33.285156 -19.960938 34.96875 -23.039062 L 34.96875 0.242188 C 34.96875 4.269531 31.691406 7.546875 27.664062 7.546875 L 0.03125 7.546875 L 0.03125 8.765625 L 27.664062 8.765625 C 32.363281 8.765625 36.1875 4.941406 36.1875 0.242188 L 36.1875 -10.703125 C 37.566406 -8.535156 39.980469 -7.09375 42.730469 -7.09375 L 63.925781 -7.09375 C 66.636719 -7.09375 68.839844 -4.890625 68.839844 -2.179688 L 68.839844 11.703125 C 68.839844 14.363281 66.679688 16.523438 64.023438 16.523438 L 49.683594 16.523438 C 45.230469 16.523438 41.609375 20.148438 41.609375 24.601562 L 41.609375 40.339844 L 42.824219 40.339844 L 42.824219 24.601562 C 42.824219 20.820312 45.902344 17.742188 49.683594 17.742188 L 64.023438 17.742188 C 65.992188 17.742188 67.738281 16.789062 68.839844 15.324219 L 68.839844 22.175781 C 67.484375 22.457031 66.457031 23.664062 66.457031 25.105469 C 66.457031 26.753906 67.800781 28.09375 69.449219 28.09375 C 71.097656 28.09375 72.441406 26.753906 72.441406 25.105469 C 72.441406 23.664062 71.417969 22.457031 70.058594 22.175781 L 70.058594 15.324219 C 71.160156 16.789062 72.910156 17.742188 74.878906 17.742188 L 89.214844 17.742188 C 92.996094 17.742188 96.074219 20.820312 96.074219 24.601562 L 96.074219 39.734375 L 93.929688 39.734375 C 93.710938 39.734375 93.511719 39.851562 93.40625 40.039062 C 93.347656 40.132812 93.320312 40.238281 93.320312 40.339844 C 93.320312 40.449219 93.347656 40.550781 93.40625 40.648438 L 96.15625 45.414062 C 96.371094 45.789062 96.992188 45.789062 97.207031 45.414062 L 99.960938 40.648438 C 100.015625 40.550781 100.042969 40.449219 100.042969 40.339844 C 100.042969 40.238281 100.015625 40.132812 99.960938 40.039062 C 99.855469 39.851562 99.652344 39.734375 99.4375 39.734375 L 97.292969 39.734375 L 97.292969 24.601562 C 97.292969 20.148438 93.667969 16.523438 89.214844 16.523438 L 74.878906 16.523438 C 72.21875 16.523438 70.058594 14.363281 70.058594 11.703125 L 70.058594 -2.179688 C 70.058594 -5.558594 67.308594 -8.308594 63.925781 -8.308594 L 42.730469 -8.308594 C 39.121094 -8.308594 36.1875 -11.246094 36.1875 -14.855469 L 36.1875 -58.589844 C 39.351562 -49.039062 48.359375 -42.128906 58.957031 -42.128906 L 73.007812 -42.128906 C 78.640625 -42.128906 83.222656 -37.542969 83.222656 -31.910156 L 83.222656 -16.902344 L 81.449219 -16.902344 C 81.113281 -16.902344 80.839844 -16.628906 80.839844 -16.296875 L 80.839844 -11.527344 C 80.839844 -11.191406 81.113281 -10.917969 81.449219 -10.917969 L 86.21875 -10.917969 C 86.554688 -10.917969 86.824219 -11.191406 86.824219 -11.527344 L 86.824219 -16.296875 C 86.824219 -16.628906 86.554688 -16.902344 86.21875 -16.902344 L 84.441406 -16.902344 L 84.441406 -31.910156 C 84.441406 -36.378906 81.855469 -40.25 78.109375 -42.128906 L 93.386719 -42.128906 C 105.945312 -42.128906 116.160156 -31.914062 116.160156 -19.355469 L 116.160156 70.253906 L 114.382812 70.253906 C 114.046875 70.253906 113.777344 70.523438 113.777344 70.859375 L 113.777344 75.628906 C 113.777344 75.964844 114.046875 76.234375 114.382812 76.234375 L 119.152344 76.234375 C 119.488281 76.234375 119.761719 75.964844 119.761719 75.628906 L 119.761719 70.859375 C 119.761719 70.523438 119.488281 70.253906 119.152344 70.253906 L 117.375 70.253906 L 117.375 24.738281 C 118.597656 26.484375 120.617188 27.632812 122.90625 27.632812 L 131.359375 27.632812 C 134.457031 27.632812 136.980469 30.152344 136.980469 33.253906 L 136.980469 125.210938 L 134.835938 125.210938 C 134.617188 125.210938 134.417969 125.328125 134.308594 125.515625 C 134.253906 125.609375 134.226562 125.714844 134.226562 125.820312 C 134.226562 125.925781 134.253906 126.03125 134.308594 126.125 L 137.0625 130.890625 C 137.277344 131.269531 137.898438 131.269531 138.113281 130.890625 L 140.867188 126.125 C 140.921875 126.03125 140.949219 125.925781 140.949219 125.820312 C 140.949219 125.714844 140.921875 125.609375 140.867188 125.515625 C 140.757812 125.328125 140.558594 125.210938 140.339844 125.210938 L 138.195312 125.210938 L 138.195312 33.253906 C 138.195312 29.484375 135.128906 26.414062 131.359375 26.414062 L 122.90625 26.414062 C 119.855469 26.414062 117.375 23.9375 117.375 20.886719 L 117.375 -6.382812 C 120.539062 3.164062 129.550781 10.078125 140.148438 10.078125 L 149.109375 10.078125 C 154.535156 10.078125 158.953125 14.492188 158.953125 19.917969 L 158.953125 123.828125 C 157.59375 124.109375 156.566406 125.316406 156.566406 126.757812 C 156.566406 128.40625 157.910156 129.75 159.558594 129.75 C 161.207031 129.75 162.550781 128.40625 162.550781 126.757812 C 162.550781 125.316406 161.527344 124.109375 160.167969 123.828125 L 160.167969 79.632812 C 161.464844 81.570312 163.671875 82.847656 166.171875 82.847656 L 173.945312 82.847656 C 177.253906 82.847656 179.949219 85.542969 179.949219 88.851562 L 179.949219 177.289062 L 178.171875 177.289062 C 177.839844 177.289062 177.566406 177.5625 177.566406 177.898438 L 177.566406 182.664062 C 177.566406 183 177.839844 183.273438 178.171875 183.273438 L 182.941406 183.273438 C 183.277344 183.273438 183.550781 183 183.550781 182.664062 L 183.550781 177.898438 C 183.550781 177.5625 183.277344 177.289062 182.941406 177.289062 L 181.164062 177.289062 L 181.164062 88.851562 C 181.164062 84.871094 177.925781 81.632812 173.945312 81.632812 L 166.171875 81.632812 C 162.859375 81.632812 160.167969 78.9375 160.167969 75.628906 L 160.167969 19.917969 C 160.167969 15.628906 157.707031 11.910156 154.125 10.078125 L 182.253906 10.078125 C 194.8125 10.078125 205.027344 20.292969 205.027344 32.847656 L 205.027344 152.464844 C 203.667969 152.746094 202.640625 153.953125 202.640625 155.390625 C 202.640625 157.042969 203.984375 158.386719 205.632812 158.386719 C 207.285156 158.386719 208.628906 157.042969 208.628906 155.390625 C 208.628906 153.953125 207.601562 152.746094 206.242188 152.464844 L 206.242188 62.757812 C 207.609375 64.882812 209.988281 66.296875 212.695312 66.296875 C 219.230469 66.296875 224.546875 71.613281 224.546875 78.148438 L 224.546875 110.207031 L 222.402344 110.207031 C 222.183594 110.207031 221.984375 110.320312 221.875 110.511719 C 221.820312 110.605469 221.792969 110.707031 221.792969 110.816406 C 221.792969 110.917969 221.820312 111.023438 221.875 111.117188 L 224.628906 115.886719 C 224.84375 116.261719 225.464844 116.261719 225.679688 115.886719 L 228.433594 111.117188 C 228.488281 111.023438 228.515625 110.917969 228.515625 110.816406 C 228.515625 110.707031 228.488281 110.605469 228.433594 110.511719 C 228.324219 110.320312 228.125 110.207031 227.90625 110.207031 L 225.761719 110.207031 L 225.761719 78.148438 C 225.761719 70.941406 219.902344 65.082031 212.695312 65.082031 C 209.136719 65.082031 206.242188 62.1875 206.242188 58.628906 L 206.242188 32.847656 C 206.242188 19.621094 195.480469 8.859375 182.253906 8.859375 L 140.148438 8.859375 C 127.589844 8.859375 117.375 -1.355469 117.375 -13.910156 L 117.375 -19.355469 C 117.375 -20.332031 117.308594 -21.289062 117.195312 -22.234375 L 142.535156 -22.234375 " fill-opacity="1" fill-rule="nonzero"/></g></g></g></g></g></svg>